<svg id="Layer_1" data-name="Layer 1" xmlns="http://www.w3.org/2000/svg" viewBox="0 0 1851.8 1347.4">
  <defs>
    <style>
      .cls-1{fill:#8bbc30}.cls-2{fill:#773016}.cls-3{fill:#6f9227}.cls-4{fill:#bad06b}.cls-5{fill:#d38340}.cls-6{fill:#b96e37}.cls-7{fill:#e8a363}.cls-10{fill:#ee9d5b}.cls-11{fill:#f9e9c6}
    </style>
  </defs>
  <path class="cls-1" d="M1222 893.1a406.6 406.6 0 0143.3-62.8c-4.6-10-3.9-23-3.6-33.6a259.2 259.2 0 015.2-46.3 271.9 271.9 0 0113.5-45.3c5.4-13.7 13-29.3 24.4-39a4.3 4.3 0 017 4.2c-2.8 14.4-10.1 28.7-15.3 42.4a271.6 271.6 0 00-12 41 286.8 286.8 0 00-5.5 43c-.3 5.2-.1 10.7 0 16.3l8-10.4a5260 5260 0 0187.7-111.1c10.3-12.8 21-25.1 31.3-37.8-1.5-6.2-1.4-13-.8-19.2a270.6 270.6 0 015-31.9 211 211 0 018.5-31 98.5 98.5 0 016.6-14.1c2.6-4.7 6.7-8.8 10.4-12.7 1.8-1.8 5.5-.4 5.4 2.3a131.7 131.7 0 01-4.8 29.3c-3 10-6.1 19.9-8.6 30-2.3 9.2-4 18.5-5.5 28 14.9-18 29.4-36 44.6-53.8 15.7-18.2 31.3-36.4 47.3-54.4 12.2-13.8 26.6-35 44.6-41 2-.6 3.4 1.4 3.1 3.1-3.3 19-22.6 37-34.4 51.6l-35.7 44.5 5.6-.4 27.7-2.4c17.7-1.4 36.5-5.3 54.2-2.4 3.4.5 3.4 5.3.9 6.8-16 9.1-36.4 10-54.2 10.9a240.4 240.4 0 01-28.7-.4 125.7 125.7 0 01-14.1-1.4q-43.5 54.6-86.5 109.7c-6.2 7.9-12.2 16-18.3 23.9 16.5-6.1 37.2-11.2 41.3-12.4 12-3.4 24.2-7 36.3-10l15.4-4.2c2.5-.7 5-1 7.5-1.6s4.5-1.7 6.9-2.1a3.9 3.9 0 014.7 4.7c-3.1 11-13.6 17.1-23 21.9-11 5.5-23.9 7.5-35.9 10.3-13.7 3.2-27.4 6.7-41.3 9.1-6.5 1.1-13.2 2.6-19.7 2.9a51.3 51.3 0 01-6.4 0l-53.3 69.5c-20.5 27-42.8 53.6-60.1 82.9l10.6-1.3a368.8 368.8 0 0083.3-17.6 610.8 610.8 0 00149.1-77c86.5-59.6 155.6-150 163.7-257.6 4-53.3-1.7-108.5-11.5-161-.5-2.4-.5-6.7-2-8.8-3.3-5-3.6-3.1-9.2-1.7s-11.6 5.4-16.8 7.8l-36.3 17c-24.8 11.6-49.6 23-74.3 34.8-47.9 22.9-95.4 47.5-136.3 81.8a427.2 427.2 0 00-95.7 114.4 420.6 420.6 0 00-50.5 144.3c-6.2 39.8-4 78.9-2.8 118.3z" transform="translate(-40.8 -225.4)"/>
  <path class="cls-2" d="M1207.4 916.2a29.8 29.8 0 00-4.2 6.1c-9.2 10.3 3.7 29.5 18.4 22 10.7-5.5 18-10.9 30.2-12.6s24.6-2.3 36.8-4a382 382 0 0079.9-21.3 613.4 613.4 0 00144.8-79.3C1603.8 760.5 1675.1 667 1685 552c5-57.4-4.2-116.9-14.8-173.3-4-21.1-17.8-36.7-40.6-29-27.3 9.4-53.7 25-79.8 37.2-53.7 25.2-108.6 49.2-157.8 82.7A451.7 451.7 0 001278.1 581a440.2 440.2 0 00-73.4 170.3c-10 51.9-14.8 113.3 2.7 164.8zm67.9-285.8a427.2 427.2 0 0195.7-114.3c40.8-34.3 88.4-59 136.3-81.8 24.7-11.7 49.5-23.2 74.2-34.8l36.4-17c5.2-2.4 11.2-6.5 16.8-7.8s5.8-3.2 9.2 1.7c1.4 2 1.5 6.4 2 8.8 9.8 52.4 15.4 107.7 11.4 161-8 107.5-77.1 198-163.6 257.5a608.7 608.7 0 01-149.1 77 368.8 368.8 0 01-83.4 17.7l-10.6 1.3c17.4-29.3 39.7-56 60.1-82.9l53.4-69.5a51.3 51.3 0 006.4 0c6.5-.3 13.2-1.8 19.6-2.9 14-2.4 27.6-6 41.4-9.1 12-2.8 24.8-4.8 35.8-10.3 9.5-4.8 20-10.8 23-21.9a3.9 3.9 0 00-4.6-4.7c-2.4.4-4.6 1.5-7 2.1s-5 .9-7.4 1.6l-15.4 4.1c-12.2 3.2-24.3 6.7-36.4 10.1-4 1.2-24.7 6.2-41.3 12.4l18.3-24q43-55 86.6-109.6a125.7 125.7 0 0014.1 1.4 240.4 240.4 0 0028.7.4c17.8-1 38.2-1.8 54.1-10.9 2.6-1.5 2.5-6.3-.8-6.8-17.8-3-36.5 1-54.2 2.4-9.3.8-18.5 1.7-27.8 2.4l-5.6.4 35.8-44.5c11.8-14.6 31.1-32.7 34.4-51.6.3-1.7-1.1-3.7-3-3-18 6-32.5 27.1-44.8 41-16 17.9-31.6 36.1-47.2 54.3-15.2 17.7-29.8 35.8-44.7 53.7 1.6-9.4 3.2-18.7 5.5-28 2.5-10 5.7-20 8.6-29.9a131.7 131.7 0 004.8-29.3c.2-2.7-3.5-4.2-5.3-2.3-3.7 4-7.8 8-10.4 12.7a98.5 98.5 0 00-6.7 14 211 211 0 00-8.5 31.1 270.6 270.6 0 00-5 32c-.5 6-.6 13 1 19.1-10.5 12.6-21.2 25-31.5 37.8a5012 5012 0 00-87.6 111.1L1279 813c0-5.6-.2-11.1 0-16.3a286.8 286.8 0 015.6-43 271.6 271.6 0 0112-41c5.1-13.7 12.4-28 15.3-42.4a4.3 4.3 0 00-7-4.2c-11.4 9.7-19 25.3-24.4 39a271.9 271.9 0 00-13.5 45.3 259.2 259.2 0 00-5.3 46.3c-.2 10.6-1 23.6 3.6 33.6a406.6 406.6 0 00-43.2 62.8c-1.2-39.4-3.4-78.5 2.8-118.3a420.6 420.6 0 0150.5-144.3z" transform="translate(-40.8 -225.4)"/>
  <path class="cls-3" d="M1265.3 830.3c-4.6-10-3.9-23-3.6-33.6 0-2 .3-4 .4-5.9a56.1 56.1 0 01-5.2-17.5 360.2 360.2 0 01-2.5-100.3 424.4 424.4 0 00-29.6 101.8c-6.2 39.8-4 78.9-2.8 118.3a406.2 406.2 0 0143.3-62.8zM1657.3 546.2c4-53.3-1.6-108.6-11.4-161-.5-2.5-.6-6.8-2-8.9-3.4-4.9-3.6-3-9.2-1.7-4.1 1-8.4 3.4-12.5 5.6l-110.1 148.2 2-2.2c12.2-13.8 26.6-35 44.7-41 2-.7 3.3 1.4 3 3-3.2 19-22.6 37-34.4 51.7l-35.7 44.4c1.9 0 3.7-.2 5.6-.4l27.7-2.3c17.8-1.4 36.5-5.4 54.2-2.5 3.4.5 3.5 5.4.9 6.9-16 9-36.4 10-54.2 10.8a240.4 240.4 0 01-28.6-.4 125.7 125.7 0 01-14.2-1.4q-43.5 54.7-86.5 109.7l-18.3 24c16.5-6.2 37.2-11.3 41.3-12.4 12.1-3.4 24.2-7 36.4-10.1l15.3-4.2c2.5-.7 5-.9 7.5-1.5s4.5-1.7 7-2.2a3.9 3.9 0 014.6 4.8c-3.1 11-13.6 17-23 21.8-11 5.6-23.8 7.6-35.9 10.3-13.7 3.2-27.4 6.8-41.3 9.2-6.5 1-13.2 2.5-19.7 2.8a51.5 51.5 0 01-6.4 0c-17.8 23.2-35.6 46.3-53.3 69.6-20.5 26.9-42.8 53.6-60.1 82.8l10.6-1.3a368.8 368.8 0 0083.3-17.6 610.8 610.8 0 00149.1-77c86.5-59.6 155.6-150 163.6-257.5zM1286.8 803a26.3 26.3 0 01-7.9 0v10l7.9-10z" transform="translate(-40.8 -225.4)"/>
  <path class="cls-4" d="M1591.8 394.7l-10.3 4.8c-24.7 11.6-49.5 23-74.2 34.8-47.9 22.8-95.5 47.5-136.3 81.8a428 428 0 00-72.3 78.3l165-105.2c44.7-28.5 90.1-58.1 128.1-94.5z" transform="translate(-40.8 -225.4)"/>
  <path class="cls-1" d="M1248.1 952.2a408 408 0 0172.6 23.2c8.3-7.3 21-10.3 31.2-13.2a260.3 260.3 0 0145.8-8.4 273.1 273.1 0 0147.3-.2c14.6 1.2 31.8 4 44.4 12a4.3 4.3 0 01-2 8c-14.6 1.4-30.4-1.4-45-2.4a271.6 271.6 0 00-42.8.4 286.4 286.4 0 00-42.7 7.2c-5 1.2-10.3 3-15.6 4.7l12.2 4.8a5093 5093 0 01131.8 51.6c15.2 6.1 30.1 12.7 45.2 19 5.5-3.3 12.1-5.1 18.2-6.4a273.6 273.6 0 0132-4.5 211 211 0 0132.2-.8 98.2 98.2 0 0115.4 2.3c5.2 1.1 10.3 3.9 15 6.3 2.4 1.2 2 5.1-.5 5.7a131 131 0 01-29.5 4c-10.4 0-20.7-.1-31.1.4-9.5.5-19 1.7-28.4 2.8 21.5 9 43 17.8 64.4 27.2 22 9.7 44 19.4 65.7 29.4 16.8 7.7 41.2 15.4 52.2 31 1.2 1.6-.4 3.6-2.1 3.8-19 2.3-42-11-59.4-18l-52.9-21.3a317 317 0 002 5.2c3.4 8.6 7 17.2 10.3 25.9 6.5 16.5 15.8 33.3 18.1 51.1.5 3.4-4.1 4.9-6.3 2.8-13.3-12.6-20-31.9-26.1-48.7a240.6 240.6 0 01-8-27.5 129 129 0 01-2.7-14q-64.9-25.8-130-51l-28.2-10.5c10.6 14 21.5 32.3 23.8 36 6.7 10.6 13.6 21.1 20.2 31.8 2.7 4.6 5.6 9 8.4 13.5 1.4 2.2 2.3 4.5 3.6 6.7s3 3.9 4.1 6a3.9 3.9 0 01-3.2 5.9c-11.5.2-20.2-8-27.6-15.7-8.5-9-14-20.6-20.2-31.3-7-12.2-14.4-24.3-20.8-37-2.9-5.8-6.2-11.8-8.4-18a49.8 49.8 0 01-1.8-6.1c-27.3-10.3-54.6-20.7-82-30.9-31.7-11.7-63.7-25.3-96.8-33.5 1.5 3.4 3.2 6.8 4.4 9.8a368.9 368.9 0 0041 74.7 609.6 609.6 0 00117 120.3c82 65.5 188.7 105.4 293.9 82 52.1-11.7 103.4-33.1 150.7-57.7 2.2-1.2 6.3-2.5 7.9-4.4 3.7-4.7 1.9-4.4-1-9.4s-8.6-9.5-12.4-13.8l-26.9-29.8c-18.2-20.4-36.4-40.8-54.8-61-35.7-39.2-73.1-77.6-117.8-106.7A427.1 427.1 0 001515 927a420.6 420.6 0 00-152.8-6.4c-39.9 5.6-76.6 19-114 31.6z" transform="translate(-40.8 -225.4)"/>
  <path class="cls-2" d="M1221.7 945a29.4 29.4 0 00-7-2.3c-12.5-5.8-27.1 12-15.6 24 8.3 8.6 15.5 14 20.8 25.3s9.2 22.8 14.5 34a380.9 380.9 0 0043.5 70.3c33.5 43.6 73.9 82.7 117.9 115.6 90 67.3 200.1 108.4 313 84.5 56.3-12 110.6-38 161.5-64.4 19.1-10 30-27.8 16-47.3-17-23.4-39.5-44.2-58.8-65.6-39.7-44-78.6-89.7-124.9-127a451.9 451.9 0 00-139.7-76.7 440.1 440.1 0 00-184.3-20.8c-52.4 5.4-112.6 18.7-156.9 50.3zm293.2-18a427.1 427.1 0 01137.2 58.5c44.7 29.1 82 67.5 117.8 106.7 18.4 20.2 36.6 40.6 54.9 61l26.8 29.8c3.9 4.3 9.5 8.8 12.4 13.8s4.7 4.7 1 9.3c-1.6 2-5.7 3.3-7.9 4.5-47.3 24.5-98.5 46-150.7 57.6-105.2 23.5-211.8-16.4-294-81.9a611.3 611.3 0 01-117-120.4 368.9 368.9 0 01-41-74.6c-1.1-3-2.8-6.5-4.3-9.8 33.1 8.1 65 21.7 96.8 33.5 27.4 10.2 54.7 20.6 82 30.9a49.8 49.8 0 001.8 6.1c2.2 6.2 5.5 12.2 8.4 18 6.4 12.6 13.7 24.7 20.8 37 6.1 10.7 11.7 22.3 20.3 31.3 7.3 7.7 16 15.9 27.6 15.7a3.9 3.9 0 003.1-5.9c-1-2.1-2.8-4-4-6s-2.3-4.5-3.7-6.7l-8.4-13.5c-6.6-10.7-13.5-21.3-20.2-31.9-2.3-3.5-13.2-21.9-23.8-36l28.2 10.6q65.2 25.1 130 51a129 129 0 002.8 14 240.6 240.6 0 008 27.5c6 16.8 12.7 36.1 26 48.7 2.2 2 6.8.6 6.3-2.8-2.3-17.8-11.6-34.6-18-51.2-3.4-8.6-7-17.2-10.3-25.9a317 317 0 01-2-5.2l52.9 21.3c17.4 7 40.3 20.3 59.3 18 1.8-.2 3.3-2.1 2.1-3.8-11-15.5-35.4-23.2-52.2-30.9a4968 4968 0 00-65.7-29.4c-21.3-9.4-43-18.1-64.4-27.2 9.5-1.2 18.9-2.4 28.4-2.8 10.4-.6 20.7-.4 31.1-.5a131 131 0 0029.5-4c2.6-.5 3-4.5.6-5.7-4.8-2.4-9.9-5.1-15.1-6.3a98.2 98.2 0 00-15.4-2.2 211 211 0 00-32.2.8 273.6 273.6 0 00-32 4.5c-6 1.2-12.7 3.1-18.1 6.4-15.1-6.3-30-13-45.3-19a5093 5093 0 00-131.7-51.7l-12.3-4.8c5.3-1.6 10.6-3.4 15.6-4.6a286.4 286.4 0 0142.7-7.2 271.6 271.6 0 0142.7-.5c14.7 1 30.5 3.9 45.1 2.4a4.3 4.3 0 002-8c-12.6-8-29.7-10.8-44.4-12a273.1 273.1 0 00-47.3.3 260.3 260.3 0 00-45.8 8.4c-10.2 2.8-23 6-31.2 13.2-23.6-9.3-48-18.5-72.6-23.2 37.4-12.5 74.2-26 114-31.6A420.6 420.6 0 011515 927z" transform="translate(-40.8 -225.4)"/>
  <path class="cls-3" d="M1320.7 975.5c8.3-7.4 21-10.4 31.2-13.3l5.7-1.3a56 56 0 0115.3-10 360.4 360.4 0 0195.3-31.5 424 424 0 00-106 1.2c-40 5.6-76.7 19.1-114 31.6a408 408 0 0172.5 23.3zM1706.4 1268.2c52.2-11.6 103.4-33 150.7-57.6 2.2-1.2 6.3-2.5 7.9-4.4 3.7-4.7 2-4.4-1-9.4-2.2-3.6-5.7-7-9-10.3l-173.8-62.4 2.7 1.2c16.8 7.7 41.2 15.4 52.2 31 1.2 1.6-.3 3.5-2 3.8-19 2.3-42-11-59.4-18l-53-21.4a317 317 0 002 5.3l10.4 25.8c6.5 16.6 15.7 33.4 18 51.2.5 3.4-4.1 4.8-6.3 2.8-13.3-12.6-20-31.9-26-48.7a240.6 240.6 0 01-8-27.5 129 129 0 01-2.7-14q-65-25.8-130.1-51l-28.2-10.6c10.6 14.1 21.5 32.4 23.8 36 6.7 10.6 13.6 21.2 20.2 32 2.7 4.5 5.6 9 8.4 13.4 1.4 2.2 2.3 4.5 3.7 6.7s3 3.9 4 6a3.9 3.9 0 01-3.1 5.9c-11.5.2-20.3-8-27.6-15.7-8.6-9-14.2-20.6-20.3-31.3-7-12.3-14.4-24.4-20.7-37-3-5.8-6.3-11.8-8.5-18a49.8 49.8 0 01-1.8-6.1c-27.3-10.3-54.6-20.7-82-30.9-31.7-11.8-63.7-25.4-96.8-33.5 1.5 3.3 3.2 6.8 4.4 9.8a369.4 369.4 0 0041 74.6 609.3 609.3 0 00117 120.4c82 65.5 188.7 105.4 293.9 82zM1353.2 988a26.3 26.3 0 01-2.3-7.4l-9.6 2.9 11.9 4.6z" transform="translate(-40.8 -225.4)"/>
  <path class="cls-4" d="M1832.3 1161.6l-7.5-8.4c-18.3-20.4-36.5-40.8-55-61-35.6-39.3-73-77.6-117.7-106.8a427.4 427.4 0 00-95.9-46.4l148.6 127.4c40.2 34.5 81.7 69.4 127.5 95.2z" transform="translate(-40.8 -225.4)"/>
  <path class="cls-1" d="M1188 839.2c-7.2-24-19-47.1-30.9-69.7 6.4-9 8-21.9 9.8-32.4a259 259 0 003.4-46.4 272.9 272.9 0 00-4.8-47c-2.8-14.5-7.4-31.2-16.8-42.9a4.3 4.3 0 00-7.7 2.8c.2 14.7 4.7 30.1 7.3 44.6a272.6 272.6 0 014.1 42.5 287.5 287.5 0 01-2.5 43.3c-.7 5-1.9 10.5-3 16l-6-11.7a5078.4 5078.4 0 00-65.6-125.5c-7.8-14.4-16-28.5-23.9-42.9a59.8 59.8 0 004.5-18.7 273.9 273.9 0 001-32.2 211.5 211.5 0 00-2.7-32.1 98.3 98.3 0 00-3.9-15.1c-1.7-5-5-9.9-7.9-14.3-1.4-2.2-5.3-1.5-5.6 1.2a131.3 131.3 0 00-.7 29.7c1 10.3 2.3 20.6 2.9 31 .5 9.5.4 19 .2 28.5-11.3-20.3-22.3-40.8-34-61-12-20.8-24-41.6-36.4-62.2-9.4-15.8-19.7-39.2-36.3-48.5-1.8-1-3.6.7-3.6 2.5-.3 19.2 15.4 40.5 24.3 57l26.9 50.4-5.4-1.5-26.9-7.4c-17.1-4.7-34.8-12-52.8-12.5-3.4 0-4.4 4.7-2 6.6 13.8 12 33.8 16.5 51.1 20.7a241 241 0 0028.3 5 125.2 125.2 0 0014.1 1.1q32.7 61.8 64.8 123.9c4.6 8.9 9 17.9 13.5 26.8-15-9-34.5-17.9-38.3-19.7-11.2-5.6-22.5-11.3-33.8-16.7-4.9-2.2-9.6-4.6-14.4-7-2.3-1-4.7-1.8-7-2.9s-4.2-2.5-6.4-3.4a3.9 3.9 0 00-5.5 3.8c1 11.5 10.1 19.3 18.6 25.8 9.8 7.5 22 11.8 33.3 16.8 13 5.6 25.8 11.6 39 16.6 6.1 2.2 12.4 4.9 18.8 6.4a50 50 0 006.3 1.1c13.2 26 26.5 52.1 39.6 78.3 15 30.2 32 60.5 43.7 92.5-3.4-1-7-2.4-10.2-3.3a369 369 0 01-78.6-32.7 610.4 610.4 0 01-132.3-103.2c-74-74.6-125.2-176.3-113.2-283.4 5.9-53.1 21.7-106.4 41-156 .9-2.4 1.8-6.6 3.5-8.4 4.3-4.2 4.1-2.4 9.4 0s10.4 7.5 15 10.8l32.7 23.5c22.2 16 44.5 31.8 66.5 48 42.9 31.3 85 64.3 118.8 105.5a427.4 427.4 0 0173 130.1 420.6 420.6 0 0122.9 151.2c-1.2 40.2-10.7 78.2-19.1 116.7z" transform="translate(-40.8 -225.4)"/>
  <path class="cls-2" d="M1231.2 703.3a440.3 440.3 0 00-40.5-181 451.7 451.7 0 00-91.3-130.6c-42.2-42-91.7-75.8-139.8-110.5-23.4-16.8-46.4-37-71.5-51.2-21-12-37.5.8-45.3 21C822 304.4 802 361 796.2 418.5c-11.6 114.8 41.1 219.8 117.8 302 37.5 40.1 80.8 76 127.7 104.7a380.6 380.6 0 0074.6 35.6c11.6 4 23.7 6.8 35.3 10.8s18 10.6 27.4 17.9c13.1 10.2 29.3-6.3 22.1-18a29.2 29.2 0 00-3-6.9c26.7-47.4 33.5-108.6 33.1-161.3zm-24 19.1c-1.2 40.3-10.7 78.3-19 116.8-7.4-24-19.1-47.1-31-69.7 6.4-9 8-21.9 9.8-32.4a259 259 0 003.4-46.4 272.9 272.9 0 00-4.9-47c-2.8-14.5-7.4-31.2-16.7-42.9a4.3 4.3 0 00-7.8 2.8c.2 14.7 4.7 30.1 7.3 44.6a272.6 272.6 0 014.2 42.5 287.5 287.5 0 01-2.5 43.3c-.7 5-2 10.5-3 16l-6.1-11.7a5078.4 5078.4 0 00-65.6-125.5c-7.7-14.4-16-28.5-23.8-42.9a59.8 59.8 0 004.4-18.7 273.9 273.9 0 001-32.2 211.5 211.5 0 00-2.6-32.1 98.3 98.3 0 00-4-15.1c-1.6-5-5-9.9-7.8-14.3-1.5-2.2-5.4-1.5-5.7 1.2a131.3 131.3 0 00-.7 29.7c1 10.3 2.3 20.6 3 31 .5 9.5.3 19 .1 28.5-11.3-20.3-22.3-40.8-34-61-12-20.8-24-41.6-36.3-62.2-9.5-15.8-19.8-39.2-36.4-48.5-1.8-1-3.5.7-3.6 2.5-.2 19.2 15.5 40.5 24.3 57l27 50.4-5.5-1.5-26.8-7.4c-17.2-4.7-34.9-12-52.9-12.5-3.3 0-4.3 4.7-2 6.6 13.9 12 33.8 16.5 51.2 20.7a241 241 0 0028.2 5 125.2 125.2 0 0014.2 1.1q32.6 61.8 64.7 123.9l13.6 26.8c-15.2-9-34.5-17.9-38.3-19.7-11.3-5.6-22.5-11.3-33.9-16.7-4.8-2.2-9.5-4.6-14.3-7-2.3-1-4.8-1.8-7-2.9s-4.2-2.5-6.5-3.4a3.9 3.9 0 00-5.5 3.8c1 11.5 10.2 19.3 18.6 25.8 9.8 7.5 22 11.8 33.4 16.8 12.9 5.6 25.7 11.6 39 16.6 6 2.2 12.4 4.9 18.8 6.4a50 50 0 006.3 1.1c13.2 26 26.4 52.1 39.5 78.3 15.1 30.2 32 60.5 43.8 92.5-3.5-1-7.1-2.4-10.2-3.3a369 369 0 01-78.7-32.7 610.4 610.4 0 01-132.3-103.2c-74-74.6-125.1-176.3-113.2-283.4 6-53.1 21.7-106.4 41-156 1-2.4 1.8-6.6 3.6-8.4 4.2-4.2 4-2.4 9.4 0s10.3 7.5 15 10.8l32.6 23.5c22.2 16 44.5 31.8 66.5 48 42.9 31.3 85 64.3 118.8 105.5a427.4 427.4 0 0173 130.1 420.6 420.6 0 0122.9 151.1z" transform="translate(-40.8 -225.4)"/>
  <path class="cls-3" d="M1157.2 769.5c6.3-9 8-21.9 9.7-32.4l.7-5.8a56.3 56.3 0 008.3-16.2 360.8 360.8 0 0021-98.2 424 424 0 0110.3 105.5c-1.3 40.3-10.7 78.3-19.1 116.8-7.3-24-19.1-47.1-31-69.7zM824.4 417.8c6-53.1 21.7-106.4 41-156 .9-2.4 1.8-6.6 3.5-8.4 4.3-4.2 4.1-2.4 9.4 0 4 1.7 7.6 4.9 11.2 7.8l80.9 166-1.5-2.5c-9.5-15.8-19.8-39.3-36.4-48.6-1.8-1-3.6.8-3.6 2.5-.3 19.2 15.4 40.5 24.3 57.1L980 486l-5.4-1.4c-9-2.4-17.9-5-26.9-7.5-17.1-4.6-34.8-12-52.8-12.4-3.4-.1-4.3 4.6-2 6.6 13.9 11.8 33.8 16.5 51.1 20.7a241 241 0 0028.3 4.9 125.2 125.2 0 0014.1 1.2q32.7 61.7 64.8 123.8l13.6 26.9c-15.2-9.1-34.5-18-38.3-19.8-11.3-5.6-22.5-11.3-34-16.6l-14.2-7c-2.3-1.1-4.8-1.8-7.1-3s-4.2-2.4-6.4-3.3a3.9 3.9 0 00-5.5 3.8c1 11.4 10.2 19.3 18.6 25.7 9.8 7.5 22 11.8 33.3 16.8 13 5.7 25.8 11.7 39 16.6 6.1 2.3 12.5 5 18.8 6.4a50.1 50.1 0 006.3 1.2c13.2 26 26.5 52 39.6 78.2 15 30.3 32 60.6 43.7 92.5l-10.2-3.2a368.4 368.4 0 01-78.6-32.7A610.4 610.4 0 01937.6 701c-74-74.5-125.2-176.2-113.2-283.3zM1141 738.7a26.8 26.8 0 007.8 1.4l-1.8 9.9-6-11.3z" transform="translate(-40.8 -225.4)"/>
  <path class="cls-4" d="M916.8 281l9.2 6.7c22.2 16 44.5 31.8 66.5 48 42.9 31.3 85 64.3 118.8 105.5a427 427 0 0156.6 90.4l-142.7-134c-38.6-36.3-77.8-73.8-108.4-116.6z" transform="translate(-40.8 -225.4)"/>
  <path class="cls-5" d="M225 1212.8a1032.4 1032.4 0 00146.9 28.4c99.2 11.5 199 6 298.3-2.5 95.4-8.2 191.2-23 280.9-58 78-30.4 156.5-77.1 210.2-142.6 28.9-35.2 49.1-76 49.5-122.2a180 180 0 00-40.2-114.5 10 10 0 01-1.6-10.3 325.4 325.4 0 00-27.8-25.7c-67.2-54.2-151.6-81.6-237-88.5-49.6-4-99.5-1.7-148.9 3.6s-99.6 12.6-148 24.3c-47.9 11.6-91.2 32-134.2 55.6a1500 1500 0 00-113.2 67.7 645.3 645.3 0 00-100.7 81.6c-31.5 31.9-55.8 68.2-80 105.7a456.4 456.4 0 01-81 97c-14 12.5-31 27.1-34.7 46.6-2.8 14.6 1.5 35.7 18.4 39 12 2.4 26.4-2.5 38.7-3a200.2 200.2 0 0133.6 2c24.1 3 47.5 9.5 70.9 15.8zm446.4-77.2c-102.3 11-206.9 17.5-309.5 8.6a1.8 1.8 0 010-3.6c101.9-5.4 203.9-4.1 305.1-18.7 49.7-7.2 99-15.7 147.8-27.6s95.7-30 144.7-40.2c3.9-.7 6.2 4.3 2.7 6.4-43.5 26-94 38.2-143 49.6a1228.7 1228.7 0 01-147.8 25.5zm412.9-92c-22.2 22.1-52.2 36.4-80.7 48.9-28 12.2-57.3 24.2-87.9 27.4-.8.1-1-1-.4-1.4 27.6-14.2 57-24.1 84.8-38 27.3-13.5 53.1-30.4 81.4-41.8 2.8-1.1 4.7 3 2.8 4.9zm34.6-58.4c-1.5 2.5-2.7 5.4-4.8 7.4a48.8 48.8 0 01-7.2 5.3 147.7 147.7 0 01-13.8 8.2 112.8 112.8 0 01-15.7 6.7 46.7 46.7 0 01-8 2.2c-2.6.3-5.4-.4-7.9-.7a.9.9 0 01-.6-1.5c1.7-1.8 3.2-4.2 5.2-5.7a70.6 70.6 0 017-4.3l13.5-7.9c4.6-2.7 9.2-5.4 13.7-8.4a55.8 55.8 0 017-4.3c2.4-1.1 5.1-1.3 7.7-2a3.5 3.5 0 013.9 5zm-38.3-123.4l3.1-.8a27.3 27.3 0 016.4-.8c4-.2 8 .1 11.8.1 4.1 0 8.2 0 12.3.3l6 .4a12.3 12.3 0 015 1.2 10.6 10.6 0 011.2 1c2.6.9 5.3 2 5.3 5.3s-2.9 4.3-5.4 5.3l-1 .8a9.3 9.3 0 01-3.7 1 38.3 38.3 0 01-4.4.2c-2.6 0-5.2.1-7.9-.1-5.5-.5-11.1-1.2-16.7-2a39 39 0 01-8.4-1.7c-1.4-.6-2.8-1.2-4.2-2a5.7 5.7 0 01-1.7-1c-.3-.3-.6-1-1-1.3-1.2-1-1.7-3.1 0-3.9 1.2-.5 1.9-1.5 3.3-2zM722 776.2c52-27.2 117.9-35 175.8-35.9a574.9 574.9 0 0192.6 6.1c29 4.3 59.8 9.1 84.6 25.8a3.1 3.1 0 01-1.6 5.7c-29 .4-57.3-8.2-85.7-12.3a631.9 631.9 0 00-90-6.7 703.8 703.8 0 00-89.8 5.3c-28.7 3.6-56.8 10.2-85.4 13.7-1 .1-1.3-1.3-.5-1.7zm149.4 94.3c51.6-7.6 105-16.3 157-10.5 4.9.5 6.8 8 1.3 9-57.4 12-116.7 13.5-174.6 22.9A1597.2 1597.2 0 00551 973.2a1569.4 1569.4 0 00-147 64 2024.8 2024.8 0 00-69.7 36.8c-12 6.5-23.7 13.3-35.7 19.6-11.2 5.8-23.4 10.5-34.5 16.7-2 1-3.4-1.7-1.7-3 13-9.6 24.6-20.4 38.3-29.3 12-7.8 24.2-15.3 36.6-22.5q39.4-22.6 80-42.8a1508 1508 0 01297.3-110.5 1545.6 1545.6 0 01157-31.7zm-674 199.8c19.9-35.8 53.7-66.5 83.9-93.4a833 833 0 0199-75.9 876.2 876.2 0 01111-61.4c18.4-8.4 37-16.3 55.8-23.5 21.8-8.2 42-12.5 65-15.6 4.2-.6 8 5.5 3.2 7.8-18.2 8.6-35.6 16.9-54.5 24.2-20 7.8-39.8 15.6-59.3 24.5a875.3 875.3 0 00-109.4 59.8 921.2 921.2 0 00-101.7 75.6c-30.4 26.1-57.7 57-89.5 81.4-2.1 1.8-4.7-1.4-3.5-3.5zM1224.6 873.9c3.3-1 6.7-1.8 10-2.5l19.6-4.6c.6-.2 3.9-1.3 2.2-.5a16.3 16.3 0 001.6-1l.7-1c-1 1.6-.2 0 0-.8l.2-.3v-.1a14.5 14.5 0 010-1.5c0-1.2 0-2.3-.2-3.5 0-.6-.4-3.7 0-1.6-.3-1.1-.5-2.2-.6-3.4a105.9 105.9 0 00-3.1-13.4l-1.3-3.6a51.9 51.9 0 00-2.1-4l-1-1.5-.4-.5-1-1-1-1-1-1c1.3 1-.2 0-.4-.1-1-.5-1.8-1.1-2.8-1.5a24.7 24.7 0 00-4.3-1h-.2l-3.6-.2a27.1 27.1 0 00-6 .7c-5.1 1-10.1 2.5-15.1 3.9l-4 1.2c1.2 2.7 2.7 5.2 3.7 8a198.2 198.2 0 0110.1 35.8z" transform="translate(-40.8 -225.4)"/>
  <path class="cls-2" d="M211.7 1232a1235 1235 0 0078 18.9c106.2 21.4 213 23.1 320.7 16.4 104.9-6.6 211-17.8 311.4-50.7 85-28 167.2-72.2 228-139 30.7-33.8 59-71.8 71.5-116.3a191.1 191.1 0 006.1-66.2c4.9-.4 10-2 14.2-3 7-1.7 14.4-2.8 21.3-5.2 7.9-2.7 13.9-8.1 16.4-16.2 2-6.8 1.1-14-.2-20.8a68 68 0 00-14.2-33.8c-10-10.8-24.8-12.7-38.5-10a73.8 73.8 0 00-21.3 8.3c-.7.4-1 1-1.6 1.6-2-3.6-4-7.2-6.3-10.7a6.8 6.8 0 000-8.5C1073.8 636.5 849 642.7 669.5 672.3c-50.3 8.3-100 18.2-147 38.7-45.4 19.7-88.8 45.2-131 70.8-80.4 48.8-154.4 106.8-207.3 185.6-26.4 39.3-49.4 81.5-84.4 114.2-27.6 25.8-63.8 51.6-58.4 94.3 2 15.6 9.6 31.3 23.7 39.3 19.7 11.3 44.6 1.3 65.8 1.7 27.5.7 54.4 8 80.8 15.1zm1003-403.1c5-1.4 10-3 15.2-4a27.1 27.1 0 016-.6l3.6.1h.2l2.3.5c.5.1 3 1 2 .5l2.8 1.5.3.2 1.1 1 1 1 1 1 .4.4 1 1.6 1.4 2.5.7 1.5 1.3 3.6a105.9 105.9 0 013 13.4l.6 3.4a45 45 0 01.2 5 14.5 14.5 0 000 1.5v.4c-.3 1-1 2.5-.1 1l-.7 1a16.3 16.3 0 01-1.6.8c1.7-.7-1.6.3-2.2.5-6.5 1.7-13.1 3.1-19.7 4.6-3.2.8-6.6 1.5-9.9 2.5a198.2 198.2 0 00-10-35.7c-1.1-2.8-2.5-5.4-3.8-8.1l4-1.1zM82 1198c-16.8-3.3-21.2-24.4-18.4-39 3.8-19.5 20.7-34.1 34.8-46.7a456.4 456.4 0 0081-96.9c24.1-37.5 48.4-73.8 80-105.7a647.6 647.6 0 01100.6-81.6 1500 1500 0 01113.2-67.7c43-23.6 86.4-44 134.3-55.6 48.4-11.7 98.5-19 148-24.3s99.2-7.6 148.8-3.6c85.4 6.9 169.8 34.3 237 88.5a325.4 325.4 0 0127.8 25.7 10 10 0 001.5 10.3 180 180 0 0140.3 114.5c-.4 46.2-20.6 87-49.5 122.2-53.7 65.5-132.1 112.2-210.3 142.7-89.6 35-185.5 49.7-280.8 57.9-99.3 8.5-199 14-298.3 2.5a1032.4 1032.4 0 01-146.8-28.4c-23.5-6.3-46.8-12.7-70.9-15.9a200.2 200.2 0 00-33.5-1.9c-12.3.5-26.7 5.4-38.8 3z" transform="translate(-40.8 -225.4)"/>
  <path class="cls-2" d="M201 1073.9c31.8-24.4 59-55.3 89.5-81.4a921.2 921.2 0 01101.7-75.6A875.3 875.3 0 01501.5 857c19.5-9 39.4-16.7 59.4-24.5 18.8-7.3 36.3-15.6 54.4-24.2 4.8-2.3 1-8.4-3.2-7.8a284.8 284.8 0 00-65 15.6c-18.8 7.2-37.4 15.1-55.7 23.5a876.2 876.2 0 00-111 61.4 833 833 0 00-99.1 75.9c-30.3 26.9-64 57.5-83.9 93.3-1.2 2.2 1.4 5.4 3.6 3.7zM807.8 764.2a703.8 703.8 0 0190-5.3 631.9 631.9 0 0189.8 6.6c28.5 4.2 56.9 12.8 85.8 12.4a3.1 3.1 0 001.5-5.7c-24.7-16.7-55.6-21.5-84.6-25.8a574.9 574.9 0 00-92.6-6.1C840 741.2 774 749 722 776.2c-.8.4-.5 1.8.4 1.7 28.6-3.5 56.8-10.1 85.4-13.7zM337.2 1055.6a785.7 785.7 0 00-36.6 22.5c-13.7 8.8-25.3 19.7-38.3 29.2-1.7 1.3-.2 4 1.7 3 11-6.1 23.3-10.8 34.5-16.7 12-6.2 23.8-13 35.7-19.6 23-12.6 46.1-25 69.7-36.8a1569.4 1569.4 0 01147-64A1597.2 1597.2 0 01855.2 892c57.9-9.4 117.2-10.9 174.5-22.8 5.5-1.1 3.6-8.5-1.2-9-52-5.8-105.5 2.9-157 10.5a1545.6 1545.6 0 00-157 31.7 1508 1508 0 00-297.2 110.5q-40.7 20.2-80 42.8zM1077.2 867.7c.5.3.7 1 1.1 1.4a5.7 5.7 0 001.7 1l4.2 2a39 39 0 008.4 1.7l16.7 2h7.9a38.3 38.3 0 004.4-.2 9.3 9.3 0 003.6-1l1-.8c2.6-1 5.5-2 5.5-5.3s-2.7-4.4-5.3-5.3a10.6 10.6 0 00-1.2-1 12.3 12.3 0 00-5-1.2l-6-.4c-4.1-.3-8.2-.2-12.3-.2-4 0-7.9-.3-11.8-.1a27.3 27.3 0 00-6.4.7l-3.1.9c-1.4.4-2.1 1.4-3.4 2-1.6.7-1.2 3 0 3.8zM959.5 1054.1c-49 10.1-96 28.2-144.7 40.2s-98.1 20.4-147.8 27.6c-101.3 14.6-203.2 13.3-305.1 18.7a1.8 1.8 0 000 3.6c102.6 9 207.2 2.3 309.5-8.7a1228.7 1228.7 0 00147.8-25.4c49-11.4 99.5-23.5 143-49.6 3.5-2 1.2-7.1-2.7-6.4zM1081.5 1038.7c-28.3 11.4-54 28.3-81.4 42-27.8 13.7-57.2 23.7-84.8 37.8-.6.4-.3 1.5.4 1.5 30.6-3.2 59.9-15.2 88-27.5 28.4-12.5 58.4-26.7 80.6-49 2-1.8 0-5.9-2.8-4.8zM1115 980.2c-2.5.7-5.3 1-7.7 2a55.8 55.8 0 00-7 4.3c-4.4 3-9 5.7-13.7 8.5-4.4 2.7-9 5.1-13.4 7.8a70.6 70.6 0 00-7 4.3c-2 1.6-3.5 4-5.3 5.7a.9.9 0 00.6 1.5c2.6.3 5.4 1 7.9.7a46.7 46.7 0 008-2.1 112.8 112.8 0 0015.7-6.8 147.7 147.7 0 0013.9-8.1 48.8 48.8 0 007.1-5.4c2.1-2 3.3-4.9 4.8-7.4a3.5 3.5 0 00-3.9-5z" transform="translate(-40.8 -225.4)"/>
  <path class="cls-6" d="M1095.2 954.3c-45 27.2-95.8 43.7-146.3 58.4a2559.5 2559.5 0 01-503 92.6c-83 6.8-168 9.9-245.4 40.4-34 13.4-65.8 31.9-100.5 43.4a213.7 213.7 0 01-24.3 6.6 20.2 20.2 0 006.3 2.4c12 2.3 26.4-2.6 38.7-3a201.3 201.3 0 0133.6 1.8c24 3.2 47.4 9.7 70.8 16a1032.4 1032.4 0 00146.8 28.4c99.2 11.5 199 6 298.3-2.6 95.4-8.2 191.3-23 280.9-57.9 78-30.4 156.5-77.2 210.2-142.7 28.9-35.2 49.1-76 49.5-122.2a178.6 178.6 0 00-10.5-61.6 344.5 344.5 0 01-105.1 100zm-423.8 181.3c-102.3 11-206.9 17.5-309.5 8.6a1.8 1.8 0 010-3.6c101.9-5.4 203.9-4.1 305.1-18.7 49.7-7.2 99-15.7 147.8-27.7s95.7-30 144.7-40c3.9-.8 6.2 4.2 2.7 6.3-43.5 26-94 38.2-143 49.6a1228.5 1228.5 0 01-147.8 25.5zm412.9-92c-22.2 22.1-52.2 36.4-80.7 48.9-28 12.2-57.3 24.2-87.9 27.4-.7.1-1-1-.4-1.4 27.6-14.2 57-24.1 84.8-38 27.3-13.5 53.1-30.4 81.4-41.8 2.8-1.1 4.7 3 2.8 4.9zm34.6-58.4c-1.5 2.5-2.7 5.4-4.8 7.4a48.8 48.8 0 01-7.2 5.3 147.7 147.7 0 01-13.8 8.2 112.8 112.8 0 01-15.7 6.7 46.7 46.7 0 01-8 2.2c-2.6.3-5.3-.4-7.9-.7a.9.9 0 01-.6-1.5c1.7-1.8 3.2-4.2 5.2-5.7a70.6 70.6 0 017-4.3l13.5-7.9c4.6-2.7 9.2-5.4 13.7-8.4a55.8 55.8 0 017-4.3c2.4-1.1 5.1-1.3 7.7-2a3.5 3.5 0 013.9 5z" transform="translate(-40.8 -225.4)"/>
  <path class="cls-7" d="M812.7 699c-19.8-8.5-38.7-6-59.7-3.1a851.5 851.5 0 00-70.6 12.5A814 814 0 00549 750.3a770.4 770.4 0 00-119.2 61.9 586 586 0 00-55.8 39.3C360.2 862.6 337 876.3 334 895a2.6 2.6 0 002.4 3.2c17 1 33.1-14.8 46.9-23.2 18.4-11.2 36.7-22.7 55.6-33.2a914 914 0 01122.8-57.1 873.2 873.2 0 01124.3-37.2 788 788 0 0165.4-11.4c21-2.7 42.9-2.7 61.2-14 7.6-4.7 9.6-18.8 0-23zM899.4 706a11.2 11.2 0 00-2.8-5c-1.8-2-4.1-2.9-6.5-3.9l2.8 1.2-4.4-1.9a20 20 0 00-8.2-1.2h-7.7c-3.6-.2-6.9 1-10.3 1.9l-7.5 1.7a10.3 10.3 0 00-7.5 9.8 10.6 10.6 0 007.5 9.8 126.4 126.4 0 0012.6 4.1c3.2.8 6.4.5 9.6.4s6.8 0 9.9-1c6-1.8 13.1-6.8 12.8-13.8a11.6 11.6 0 00-.3-2.2zM1108.6 813c-18.9-18.7-51.4-16.3-76.2-17.5q-42.9-2.1-85.8-.9a578.7 578.7 0 00-84.2 8.3c-24.8 4.4-54.7 11-75.9 24.9-2.2 1.4-2 5 .8 5.8 24.9 6.1 54.1 4.3 79.8 3.9 26.5-.4 53-1.5 79.5-2s53.1 0 79.7 1.3c25 1.3 57.3 10.2 79.7-3.7 7-4.4 8.6-14.2 2.6-20.1zM380 965c-5.6.6-11.4 1-16.6 3.6-4.9 2.7-9.4 6.6-14 9.9a507.1 507.1 0 00-30.3 22.9l-27.5 22.7a70 70 0 00-12.5 12.7c-3.2 4.4-7.4 11.2-7.5 16.7 0 2.6 2 5.7 4.7 6.2 5.3.9 11-1.3 16-3.1a58.5 58.5 0 0016.8-10.7l28.2-23.4c9.2-7.6 17.8-15.6 26.4-23.8 4.1-4 8.5-7.8 12.4-12 4.3-4.7 6-10.6 7.9-16.6.7-2.3-1.3-5.5-4-5.2zM854.7 970.7c-25.6-10.3-53.1-7.5-79.8-2-26 5.4-52 11.4-78 17.2-50.6 11.3-103.4 26.9-149.4 51-3.9 2-1.7 7.5 2 7.7 53 4 108.3-2.8 160.4-11.6 26.4-4.5 52.8-8.7 79-13.2 26-4.5 51-12.9 70.6-31 6.5-6 2.3-15.3-4.8-18zM941 963.6c-2.5-2.4-5-5.4-8.5-6.2a37.4 37.4 0 00-6.7-.6 29.4 29.4 0 00-8 .3l-9.2 2a16.1 16.1 0 00-8.7 4.7l-2.8 2.9a9.2 9.2 0 001.8 14.2l3.5 2a15.7 15.7 0 009.7 2.1c3.8-.3 7.5-.8 11.2-1.3 3-.4 5.6-1.8 8.2-3 2.2-1 4.4-2 6.1-3.7 2.5-2.4 3.4-6 4.5-9a4.4 4.4 0 00-1.1-4.4zM155.4 1107.8l-.9-.4a10.8 10.8 0 00-9.2-.4l-5.4 2.6-4.7 2.5a28.9 28.9 0 00-4.5 3l-8.3 6.3a39.5 39.5 0 00-4 3 15.5 15.5 0 00-3.5 6.3 23 23 0 00-1.3 6.1 8.4 8.4 0 006 8 24.2 24.2 0 006 .3 14.9 14.9 0 007.4-1.7 27.2 27.2 0 002.3-1.7l8.8-6.8a42.3 42.3 0 005.9-5.1l3.6-4c2-2.3 4.5-4.5 5.3-7.6 1-3.4-.1-8.6-3.5-10.4z" transform="translate(-40.8 -225.4)"/>
  <path class="cls-5" d="M1086.8 1402c-75 47.6-159.6 78.8-246.5 97-94.6 19.8-189.8 20.7-286 14.9-52.5-3.2-105.3-6-157.5 2.2-24.5 3.8-48.7 9-73.2 12.7-11.7 1.7-24.8 4-37.6 4.7 31.2 10.7 64.5 11 98.4 11.7 50.8 1 101.7 1.7 152.5 2.8 89 1.8 178.5 6.7 267.5 3.1 43.8-1.7 87.8-6.8 130-19.1a572.3 572.3 0 00116.5-51 490 490 0 0099.4-69.9c30.3-28.6 54.1-63.1 76.4-98.2 22.5-35.4 46.1-72.3 61.4-111.5a241 241 0 007.8-24.7 509.4 509.4 0 01-35.7 60 597.2 597.2 0 01-173.4 165.2z" transform="translate(-40.8 -225.4)"/>
  <path d="M599.1 1166.4A68.1 68.1 0 00567 1188c-7.5 9.1-10 20.7-16.6 30.1-7 9.8-17.6 13.3-27.1 20a58.7 58.7 0 00-22 30.9c-4 13.4-2.2 27.6-7 40.9-3.7 10-10.3 19-13 29.4-4.2 15.9 6 28.7 15.2 40.6 7.1 9.2 14.8 18.5 24 25.7a44.1 44.1 0 0039.6 9.8c11-2.3 21.3-4.1 32.2-.5 12.4 4.1 22.5 12 36.1 12 15.6 0 24.1-8.5 36.4-16.2 10.7-6.8 21.2-5 32 .4 12.9 6.4 24.8 11 39.5 10.9s25.7-7.2 39.6-9.6c12.7-2.1 21 4.6 32.4 8.4a49.4 49.4 0 0036.5-2.3c10.2-5 17-14.2 26.3-20.4 11.3-7.7 24-8.2 37.2-9.4a96.9 96.9 0 0038.8-14c26.6-15 54.2-29 80-45.5a121.4 121.4 0 0028.8-28.2 43.6 43.6 0 0125.5-16c13.5-3 25-4.3 36-13.6a55.7 55.7 0 0018-28c3.2-12 4.7-23.1 17.3-28.8 10.2-4.6 21.8-3 32-8.4a53.2 53.2 0 0023.4-24.9c4.3-9.4 4.4-20.7 12.5-28.1 8.6-8 21.6-5.4 29.6-13.8a24.1 24.1 0 003.7-28.2 11.3 11.3 0 014-15.2c17.6-10.6 14.6-39-3.1-47.5-7-3.4-6.7-10.6-2.8-15.4-9-12.4-23-29-38.9-18.8-4.4 2.8-10.6.8-13.2-3.5A66.5 66.5 0 001130 981c-13.4 2.8-22.8 14.5-36.3 11.7-15.2-3.2-30.4-6.6-46-5.5-8.6.6-17 2.6-24.5 7-6.3 3.7-10.9 9.5-17.5 12.6-14.1 6.8-33 .3-48-.8-33.2-2.2-76.8 4-87.3 41.6-1.9 6.5-8.9 8.7-14.6 6a54.8 54.8 0 00-68.9 19c-6 9.4-10.9 19.8-21.4 25-12.5 6.3-25.3.7-38.4.7a65.6 65.6 0 00-39.3 13.7c-11.7 9-16.5 20.2-23 33-13.7 26.2-42.8 14-65.8 21.3zm577.1-50.3c2.6-11.8 16-17.2 26.8-17.8a36.3 36.3 0 0114.3 2 39 39 0 017.3 3.4 19.1 19.1 0 017 7.4c1.8 4 1.6 8.2-1.5 11.5s-7.7 3.2-11.5 1.5a38.6 38.6 0 01-4.9-2.8 22 22 0 00-2.2-1.2c-1.8-.5-.8-.4 0 0l.5.2-1.2-.5-2.5-.7c-.5-.2-1.6-.3-2-.3a29.7 29.7 0 00-3.8-.2l-.9.1-2.3.5-2.7.9-.7.2c-1.5.8-3 1.8-4.4 2.7a12.4 12.4 0 01-2.3 1.2l.4-.3-1.6 1.2c-.4.2-.9.2-1.4.3l-.4.1a10 10 0 01-2.6.6l1.5-.4c-2.2.6-4.6.3-6-1.3a3.7 3.7 0 00-.7-.6c-2.3-1.9-2.7-5-2.2-7.7zM1064 1092a38.1 38.1 0 019.2-13.4 51.6 51.6 0 0130.5-14 50.8 50.8 0 0133 8c4.7 3.3 9.6 7.3 10.6 13.2s-2.7 13.1-9.6 12.4a2.8 2.8 0 01-2.5-2.7l-.5-.5a449 449 0 00-2-1.7c-1-1-1.6-2.1-2.5-3.1.9 1-.7-.4-.1 0-2.5-1.6-6.1-4.2-9.4-5.5a35.6 35.6 0 00-20.2-1.9 35.1 35.1 0 00-17.6 10 91.7 91.7 0 00-7.4 8.2c-1 1.4-1.8 3-3 4.2-1.3 1.6-2.9 1.7-4.5 2.8a3 3 0 01-4-1.1c-1.6-2.9-2.7-4.5-2-8a38.2 38.2 0 012-6.9zm-55.2 110.5a32 32 0 014.6-12 48.7 48.7 0 0118.8-17.9 49.6 49.6 0 0140.5-2.7c2.3.9 4.3 1.9 5.9 2.3l.9.4a17 17 0 013.3-.2c6.8.7 10.8 6.8 7.7 13.2-3 6-10.2 7.3-16 6-4.2-1-7.1-3-10.7-4a27 27 0 00-10-1 19.3 19.3 0 00-4 .4 40.3 40.3 0 00-5.5 1.4 29.3 29.3 0 00-13.9 10.8 108.8 108.8 0 00-5.4 9.6c-1 2-1.7 4-3.3 5.7a9 9 0 01-2.2 1.4c-.8.5-2.9.5-3.6 1a.8.8 0 01-1 0c-1-1-2.6-1-3.7-2a8.4 8.4 0 01-2.4-4c-.9-2.7-.4-5.6 0-8.4zm-210.4-30.3a85.4 85.4 0 0117.6-21.5c15-12.5 33.5-14.2 52-10.3 4.4 1 8.6 2.1 12.7 3.4a62.4 62.4 0 019.6-13.8 50 50 0 0123.5-15.4 35.2 35.2 0 0127.6 3.2c3.5 2.1 6.7 4.7 10 7s7.5 5.3 8.2 9.5l.3.3a2.8 2.8 0 01-.5 4.3c-1 .6-1 .6-.4 0l-1.1 1.5a7.6 7.6 0 01-3.6 1.9 12.3 12.3 0 01-6.6-.4c-4-1.2-7.1-3.6-10.5-6-5.4-3.7-10.5-6.5-17.2-5.4a33.2 33.2 0 00-18.2 10.9c-3.2 3.3-5.9 7-8.8 10.4l.2.4c1.7 4.4 0 8.2-4.2 10.3-5 2.6-10.2 0-15.1-1.4-15.7-4.7-33.2-7.4-46.6 4a73.5 73.5 0 00-14.7 18.3c-4.7 7.7-7.4 17-13 24-4.4 5.4-13 .7-13-5.3-.1-10.3 6.6-21.3 11.8-29.9zM730 1330.1a61 61 0 0119.4-21.8c14.2-10 32.2-12 48.7-8a36.6 36.6 0 0123.3-27 37.6 37.6 0 0125.6.6c4.3 1.7 8.4 3.8 11.6 7.3 4 4.2 4.6 7.7 4 13.4-.3 3.3-3.2 6.5-6.9 5.3-3.4-1.2-5.8-1.3-9-3.3a49.7 49.7 0 00-6.4-3.6 17.9 17.9 0 00-11.9-.8c-9.1 2.7-13.3 12.1-12.3 21 .9 7.7-8.7 11.5-14.5 8.3a44.1 44.1 0 00-45 1 46 46 0 00-15.2 16.4 104.8 104.8 0 00-5.2 10.3c-1.2 3-1.7 5.4-4.7 7a3.4 3.4 0 01-3.9-.6c-6.2-5.4-.7-19.5 2.4-25.5zM691 1229a5.2 5.2 0 01-3.7 3.7c-8.5 2.2-15.7-5-24-5.7a38.9 38.9 0 00-24 6c-8 5-14.4 12.2-19.6 19.9a101 101 0 00-7.9 13.1 18.7 18.7 0 00-1.8 5.1c-.3 2.1.8 3.2-.7 2.2 9.8 7 1.6 21-9.3 16-11.5-5.3-25.7 2.3-32 12-9 14-6 31.7-6 47.3 0 5.5-7.2 7.2-10 2.7-12-18.9-10.2-46 3.6-63.7a46.3 46.3 0 0136.4-18.1 45.9 45.9 0 015.8-16.3c7-12.4 15.8-24 27.2-32.6 11-8.2 24.6-13 38.3-12 10.7.7 30.8 5.8 27.7 20.4z" transform="translate(-40.8 -225.4)" fill="#f5c693"/>
  <path d="M501.3 1200.6a718.2 718.2 0 00-81.5 101.7c-22.3 33.3-44 67.4-71.7 96.6-25 26.2-59.6 45.1-79.6 75.9a53.5 53.5 0 00-10.5 26.6c-.1 13.9 14.5 11.2 24.8 10.7 23-.9 45.6-4.8 68-9a682.5 682.5 0 01136.2-13.6c47.1.8 94.1 5.3 141.2 6.2 169.7 3.3 343-32.4 482-134a551 551 0 00152.5-167.7c19-33 36.8-74.2 41-114.5v-1.6c0-.2.2-.3.3-.5 3.2-34.3-3.7-67.7-28.6-94.4a592 592 0 00-56.8-20.3 516.8 516.8 0 00-257.7-11c-44 9.5-86.5 25-128.8 40a1226.6 1226.6 0 00-122.5 48.7c-79.7 38.3-147.1 97.1-208.3 160.2zm240.5-120.5c11.8 1.6 17.2.2 23.4-9.5 3.1-4.8 5.7-9.8 9.2-14.3a71 71 0 0126.8-20.8 74.7 74.7 0 0154.2-2.7c18.6-42 70.3-49.8 112.3-45.7 7.1.7 14.4 2.2 21.6 2.4 7.9.3 11.5-3.4 17.4-8a67.3 67.3 0 0128.6-12.7c21.1-4 42.7-.1 63.4 4.6 35.9-24.2 87.5-14 112.7 20.6 24.1-8.2 44.9 13.3 58 32.7a7.7 7.7 0 011.2 6.2c25.1 16.7 27 55.2 6.1 75.8 6.3 20-1.6 43.4-20.6 54-6.7 4-17.2 3-20.8 10.6-2.5 5.2-2.6 12-4.8 17.5a75 75 0 01-25.4 31.7 74 74 0 01-17.5 9.6c-5.3 2-18.8 2-22.7 5.2-4.2 3.4-3.8 11.5-5.5 16.7a79.7 79.7 0 01-9.9 20.3 84.3 84.3 0 01-30.7 27.3c-13.3 6.8-33.8 5-43.3 16.6-9.3 11.4-17.6 21.4-29.8 30s-25.9 15.4-39 22.7c-27.7 15.4-57.6 38.2-89.7 42.6-7.5 1-15.5.4-23 2.2-7.6 1.8-12.5 6-18.2 11a80 80 0 01-32.6 18.6 75.5 75.5 0 01-37.7 0c-6.3-1.6-11.4-5-17.4-7.1-9-3.3-14.3.2-23.3 3a97.2 97.2 0 01-41.5 3.4 94.2 94.2 0 01-19.8-4.6c-6.2-2.3-12.4-7-18.6-8.8-10-2.9-16 5.7-24.5 9.7a68.8 68.8 0 01-16.7 5.4 70.7 70.7 0 01-38.6-3.4c-6.8-2.6-13-7.1-20.1-9.2-7.6-2.2-14.4-.2-21.8 1.2-12.5 2.3-24 2-35.9-3-23.2-9.6-40.4-31.4-54.3-51.5a56.6 56.6 0 01-12.1-37.4c1-12 7.3-22.5 12.3-33.2 6.9-14.8 4.7-30.7 9.3-46a79.6 79.6 0 0117-30.4 77.7 77.7 0 0117.3-14.3c6.2-3.8 13.4-6.3 17.8-12.4 6.7-9 9-20.4 16.1-29.5a87 87 0 0162.8-33.2c7.6-.5 17.7 1.9 25-.7 8.3-2.8 9.7-9.6 13.1-16.7a81 81 0 0121.8-28 86.6 86.6 0 0168.4-18.5z" transform="translate(-40.8 -225.4)" fill="#e39b4e"/>
  <path class="cls-2" d="M651.6 1126.6c-3.4 7.1-4.8 13.8-13 16.7-7.4 2.6-17.5.2-25 .7a87 87 0 00-62.8 33.3c-7 9-9.4 20.4-16 29.4-4.5 6.1-11.7 8.6-18 12.4a77.7 77.7 0 00-17.2 14.3 79.6 79.6 0 00-17 30.4c-4.6 15.3-2.4 31.2-9.3 46-5 10.7-11.3 21.2-12.3 33.3a56.6 56.6 0 0012 37.4c14 20 31.2 41.9 54.4 51.5 11.9 5 23.4 5.2 35.9 2.9 7.4-1.4 14.2-3.4 21.8-1.2 7 2.1 13.3 6.6 20.1 9.3a70.7 70.7 0 0038.6 3.4 68.8 68.8 0 0016.7-5.5c8.4-4 14.4-12.6 24.5-9.7 6.2 1.8 12.3 6.6 18.6 8.8a94.2 94.2 0 0019.8 4.7 97.2 97.2 0 0041.5-3.5c9-2.8 14.3-6.3 23.3-3 6 2.2 11.1 5.6 17.4 7.2a75.5 75.5 0 0037.7 0 80 80 0 0032.6-18.6 41 41 0 0118.2-11c7.4-1.8 15.4-1.2 23-2.2 32-4.4 62-27.2 89.7-42.7 13.1-7.3 26.7-14.2 39-22.7s20.5-18.6 29.8-30c9.5-11.6 30-9.8 43.3-16.6a84.3 84.3 0 0030.7-27.3 79.7 79.7 0 0010-20.3c1.6-5.2 1.2-13.3 5.4-16.7 3.9-3.1 17.4-3.1 22.7-5.2a74 74 0 0017.5-9.5 75 75 0 0025.3-31.8c2.3-5.5 2.4-12.3 4.9-17.5 3.6-7.5 14-6.6 20.8-10.5a46.7 46.7 0 0020.6-54c21-20.6 19-59.2-6-75.8a7.7 7.7 0 00-1.4-6.2c-13-19.4-33.8-41-57.9-32.8-25.2-34.5-76.8-44.8-112.7-20.5-20.7-4.8-42.3-8.6-63.4-4.6a67.3 67.3 0 00-28.6 12.7c-5.9 4.5-9.5 8.2-17.4 8-7.2-.2-14.5-1.8-21.6-2.5-42-4-93.7 3.8-112.3 45.7a74.7 74.7 0 00-54.2 2.7 71 71 0 00-26.8 20.8c-3.5 4.6-6 9.5-9.2 14.3-6.2 9.7-11.6 11.1-23.4 9.6a86.6 86.6 0 00-68.4 18.5 81 81 0 00-21.9 27.9zm36.3-14.4a65.6 65.6 0 0139.3-13.8c13 0 25.8 5.6 38.3-.6 10.5-5.3 15.4-15.7 21.5-25.1a54.8 54.8 0 0168.9-19c5.7 2.8 12.7.6 14.5-6 10.6-37.6 54.2-43.8 87.4-41.5 15 1 33.8 7.5 48 .7 6.6-3 11.2-8.9 17.4-12.6 7.5-4.4 16-6.4 24.5-7 15.7-1.1 30.9 2.4 46 5.5 13.5 2.8 23-8.9 36.3-11.6 26.6-5.6 56 6.1 69.8 29.6 2.6 4.4 8.8 6.3 13.2 3.5 16-10.3 30 6.5 38.9 18.8-3.8 4.8-4.2 12 2.8 15.4 17.8 8.6 20.8 37 3.1 47.6a11.3 11.3 0 00-4 15.1 24.1 24.1 0 01-3.7 28.3c-8 8.3-21 5.8-29.5 13.7-8.1 7.4-8.3 18.8-12.6 28.2a53.2 53.2 0 01-23.3 24.8c-10.3 5.4-21.8 3.8-32 8.4-12.7 5.7-14.2 16.8-17.4 28.8a55.7 55.7 0 01-18 28c-11 9.4-22.5 10.6-36 13.7a43.6 43.6 0 00-25.5 15.9c-9 11-16.7 20.4-28.8 28.2-25.7 16.5-53.3 30.6-80 45.4a96.1 96.1 0 01-38.8 14.1c-13.2 1.3-25.8 1.8-37.2 9.4-9.2 6.3-16 15.5-26.2 20.4a49.4 49.4 0 01-36.6 2.4c-11.3-3.8-19.6-10.6-32.4-8.4-13.8 2.3-25 9.4-39.5 9.5s-26.7-4.5-39.5-10.9c-10.9-5.4-21.4-7.1-32.1-.4-12.3 7.7-20.7 16.1-36.3 16.2-13.6 0-23.8-7.9-36.1-12-11-3.6-21.2-1.8-32.2.5a44.2 44.2 0 01-39.6-9.7 150.3 150.3 0 01-24-25.8c-9.3-11.9-19.4-24.7-15.3-40.6 2.7-10.3 9.3-19.4 13-29.4 4.9-13.3 3-27.5 7-40.9a58.7 58.7 0 0122-30.9c9.5-6.6 20.2-10.2 27.1-19.9 6.8-9.4 9.2-21 16.7-30.1a68.1 68.1 0 0132-21.7c23-7.2 52.1 5 65.7-21.3 6.6-12.7 11.4-24 23.2-33z" transform="translate(-40.8 -225.4)"/>
  <path class="cls-2" d="M628.6 1062c-39 26.5-74.5 58-108.7 90.4a787.3 787.3 0 00-93.2 103c-27 36.6-49.2 76.4-78.2 111.5-25.8 31.2-60.8 52.3-87 82.8-16.8 19.5-44.2 73.4-2 82.6 1.3.3 2.7.2 4 .4 26.5 17 58.9 23.2 90 26 46.3 4.3 93.3 4 139.8 5.7 95.7 3.7 192.2 9.6 288 8.2 45-.7 90.1-4.2 134-14.3s85.3-28 125.1-48.9c36.7-19.2 72.2-41 103.7-68.2 32.5-28 59.3-61.2 83.2-96.7 27.1-40.3 56-81.7 75.7-126.3 16.2-36.7 29-84.8 20.8-126 4.2-29.4 2-59.1-10.3-87.7a124.2 124.2 0 00-18.5-30c.1-3.2-1.3-6.3-5.3-8.1l-3.5-1.6c-2.1-2-4.2-4.1-6.5-6a10.3 10.3 0 00-11.3-1.5 528.4 528.4 0 00-244-37.2c-93.8 8-184.9 43.2-271.6 78a649 649 0 00-124.2 63.8zm659.5 139.3c-15.3 39.3-38.9 76.1-61.4 111.6-22.3 35-46 69.6-76.4 98.2a491.4 491.4 0 01-99.3 69.8 569 569 0 01-116.6 51 542.6 542.6 0 01-130 19.2c-89 3.6-178.5-1.3-267.5-3.2-50.8-1-101.6-1.7-152.5-2.8-33.9-.7-67.1-1-98.4-11.6 12.9-.8 26-3 37.6-4.7 24.6-3.7 48.8-9 73.3-12.8 52.2-8 105-5.3 157.5-2.1 96.1 5.8 191.3 4.9 286-15 86.9-18.1 171.3-49.3 246.5-97a597.5 597.5 0 00173.4-165.3 509.4 509.4 0 0035.6-60 241 241 0 01-7.8 24.7zM961 951.7a516.8 516.8 0 01257.7 11 592 592 0 0156.8 20.3c25 26.7 31.7 60 28.6 94.3 0 .3-.3.3-.3.6v1.6c-4.2 40.3-22 81.6-41 114.4-38 66-91.2 122.8-152.6 167.7C971.2 1463.3 798 1499 628.2 1495.7c-47.1-.9-94-5.5-141.2-6.2-46.3-.7-90.7 5.2-136.1 13.6a476.5 476.5 0 01-68.1 9c-10.3.4-25 3.2-24.8-10.7a54 54 0 0110.5-26.7c20-30.7 54.7-49.6 79.6-75.9 27.7-29.1 49.4-63.3 71.7-96.6 24.3-36.3 51-70.2 81.5-101.6 61.2-63.1 128.6-122 208.3-160.3 39.6-19 81-34 122.5-48.7 42.3-15 84.8-30.4 128.8-39.9z" transform="translate(-40.8 -225.4)"/>
  <path class="cls-2" d="M624.8 1220.6a104.8 104.8 0 00-27.2 32.6 45.9 45.9 0 00-5.8 16.3 46.3 46.3 0 00-36.4 18.1 57.6 57.6 0 00-3.6 63.8c2.8 4.4 10 2.7 10-2.7 0-15.7-3-33.4 6-47.3 6.3-9.8 20.6-17.4 32-12.1 10.9 5 19-9 9.4-16 1.4 1 .3 0 .6-2.2a18.7 18.7 0 011.8-5 101 101 0 017.9-13.2 67.8 67.8 0 0119.6-19.8 38.9 38.9 0 0124-6.1c8.3.7 15.5 8 24 5.7a5.2 5.2 0 003.7-3.7c3-14.6-17-19.7-27.8-20.4a57.5 57.5 0 00-38.2 12zM799.5 1207.5c5.7-7.1 8.4-16.3 13.1-24.1 4.1-6.7 8.7-13 14.7-18.2 13.5-11.5 31-8.7 46.6-4 5 1.4 10 4 15.1 1.4 4.2-2.1 6-6 4.3-10.4l-.2-.4c2.8-3.4 5.6-7 8.7-10.4 5-5.2 11-9.5 18.2-10.8 6.8-1.2 11.8 1.6 17.2 5.4 3.4 2.3 6.6 4.7 10.5 5.9a12.3 12.3 0 006.6.4 7.6 7.6 0 003.6-1.9l1.1-1.4c-.7.6-.5.5.3 0a2.8 2.8 0 00.6-4.3l-.3-.3c-.7-4.2-4.8-7.2-8.2-9.5s-6.5-4.9-10-7a35.2 35.2 0 00-27.6-3.2 50 50 0 00-23.5 15.3 62.4 62.4 0 00-9.6 14 141 141 0 00-12.6-3.5c-18.6-3.9-37.1-2.2-52.1 10.3a85.4 85.4 0 00-17.6 21.5c-5.2 8.6-12 19.6-11.9 29.9 0 6 8.7 10.7 13 5.3zM1068.1 1108c1.6-1 3.2-1.2 4.6-2.8 1-1.3 1.8-2.9 2.9-4.2a91.7 91.7 0 017.4-8.3 35.1 35.1 0 0117.6-10 35.6 35.6 0 0120.2 2c3.3 1.3 7 3.9 9.4 5.5-.6-.4 1 1 .1 0 1 1 1.6 2.1 2.5 3a38.5 38.5 0 002.5 2.2 2.8 2.8 0 002.5 2.8c6.9.7 10.7-6.5 9.6-12.5s-6-9.8-10.6-13a50.8 50.8 0 00-33-8 51.6 51.6 0 00-30.5 13.8 36.3 36.3 0 00-11.1 20.2c-.7 3.6.4 5.2 2 8.1a3 3 0 004 1.1zM731.6 1356.1c3-1.5 3.4-4 4.7-6.9a104.8 104.8 0 015.2-10.3 46 46 0 0115.2-16.4c13.6-8.7 31-8.7 45-1 5.8 3.2 15.4-.7 14.5-8.3-1-8.9 3.2-18.4 12.3-21a17.9 17.9 0 0112 .8 49.7 49.7 0 016.2 3.6c3.2 2 5.7 2.1 9 3.3 3.7 1.2 6.7-2 7-5.3.5-5.7-.1-9.2-4-13.4a30.5 30.5 0 00-11.7-7.3 37.6 37.6 0 00-25.5-.7 36.6 36.6 0 00-23.3 27.1c-16.5-4-34.5-2-48.8 8a61 61 0 00-19.3 21.8c-3 6-8.6 20-2.5 25.5a3.4 3.4 0 004 .5zM1011.1 1214.8c1.1 1 2.7 1.2 3.8 2a.8.8 0 001 .2c.7-.6 2.7-.6 3.6-1a9 9 0 002.2-1.5c1.6-1.6 2.2-3.7 3.3-5.7a108.8 108.8 0 015.4-9.6 29.3 29.3 0 0113.9-10.8 40.3 40.3 0 015.4-1.4 19.3 19.3 0 014-.4 27 27 0 0110 1.1c3.6 1 6.5 3 10.7 3.9 6 1.3 13 0 16-6 3.2-6.3-.8-12.5-7.6-13.2a17 17 0 00-3.4.2l-.9-.4c-1.6-.4-3.6-1.4-5.9-2.3a49.6 49.6 0 00-40.5 2.7 48.7 48.7 0 00-18.7 18 32 32 0 00-4.6 12c-.4 2.8-1 5.7-.2 8.4a8.4 8.4 0 002.5 3.8zM1211.5 1120.1c-.8-.4-1.8-.5 0 0z" transform="translate(-40.8 -225.4)"/>
  <path class="cls-2" d="M1179 1124.5c1.4 1.6 3.8 1.8 6 1.3l-1.6.4a10 10 0 002.7-.7h.4c.5-.2 1-.1 1.4-.4l1.6-1.2-.4.3a12.4 12.4 0 002.3-1.2c1.5-.9 2.8-1.8 4.4-2.6l.7-.3 2.7-.9 2.3-.5h1a29.7 29.7 0 013.7.1l2 .3 2.5.7 1.2.5-.5-.2a22 22 0 012.2 1.3 38.6 38.6 0 004.9 2.7c3.8 1.7 8.4 1.9 11.5-1.5s3.3-7.5 1.5-11.5a19.1 19.1 0 00-7-7.4 39 39 0 00-7.3-3.4 36.3 36.3 0 00-14.3-2c-10.8.7-24.2 6-26.8 17.8-.5 2.7-.1 5.8 2 7.8a3.7 3.7 0 01.8.6z" transform="translate(-40.8 -225.4)"/>
  <path class="cls-6" d="M1288.1 1201.3a241 241 0 007.8-24.7 509.4 509.4 0 01-35.6 60 597.5 597.5 0 01-216.8 190.3 225.3 225.3 0 01-47.2 81.7 754.8 754.8 0 0054.7-27.7c35.2-19.6 70-42 99.3-69.8 30.4-28.7 54.2-63.2 76.4-98.2 22.5-35.5 46.1-72.4 61.4-111.6z" transform="translate(-40.8 -225.4)"/>
  <path class="cls-10" d="M758.2 1162.8a8.7 8.7 0 001.7-5.4c-.2-2.6-4.1-3.5-4.8-.7l-.1.5a8.6 8.6 0 00-2.2-2.2c-2.8-1.7-6.3-1.5-9.5-1.9a28.6 28.6 0 00-17 3 30.3 30.3 0 00-12.4 12.4 22.2 22.2 0 00-2.7 9.7c-.2 3.6 1 8 4.1 9.9a5 5 0 007.7-.6c1.8-1.7 2.7-4 3.5-6.6l.3-.5.7-1.5a24.9 24.9 0 011.6-2.8 5.9 5.9 0 01.6-.7c-.2 0-.4.3-.7.7l1-1.2c.7-.8 1.7-1.5 2.3-2.3l-.2.3a1.9 1.9 0 01.2-.2l1.4-.9a11 11 0 001.3-.6h.3l1.5-.5h.3l1-.1h2l5.5.5a13.6 13.6 0 004.7-.2 10.5 10.5 0 004.2-2.4 5.4 5.4 0 001.4-2v-.2l.3-.3a7.5 7.5 0 002-3.2z" transform="translate(-40.8 -225.4)"/>
  <path class="cls-10" d="M732.2 1172.9c-.5.4-.9.9 0 0zM1044.7 1049.5a30 30 0 00-6.9-7.5 34.2 34.2 0 00-19.7-7.7 29.9 29.9 0 00-18.8 5.9 28 28 0 00-7.6 8.2 24 24 0 00-2 4.6 42.7 42.7 0 00-17.5 0 41 41 0 00-21.3 12.9c-5.6 6.3-11.4 15.8-9 24.5 1.4 5.4 8.1 5.5 11 1.4 1.8-2.6 2.8-5.6 4.4-8.5a29.3 29.3 0 014.5-6.5 26.4 26.4 0 0114.6-8.3 27.8 27.8 0 0114.8 1.7 32.6 32.6 0 014.4 2.3 20.4 20.4 0 012.6 2c3.1 2.6 4 4.3 6.5 7.4l.1-.2a8.2 8.2 0 009.8 1.4c4-2.3 4.9-7.2 3-11.1-3-6.2-9-11-15.2-14.3l.1-.1 1.2-1.2c.2-.2 1.4-1.1.3-.3l2.7-1.8a26.2 26.2 0 013.2-1.9l.5-.2 1.6-.5a22.2 22.2 0 012.5-.6l1.2-.1h2.7a5.3 5.3 0 01.7.2 28.4 28.4 0 013.5 1l1.6.7c.6.2 1.1.7 1.7 1.1l.7.6.7.6 1.4 1.4.9 1c-1.3-1.4 0 0 .3.4a20 20 0 004.2 4.6l.8.6.9.8c3.2 2.9 9.2 2 10.2-2.7 1-4.1 1-8-1.3-11.8zM975.7 1231.3c.2 1.3.3 1.6.2.7a11.8 11.8 0 00-2.4-6.7 29.8 29.8 0 00-8.2-7.8 30.4 30.4 0 00-20-4.4 35.7 35.7 0 00-19.5 9.6 31.8 31.8 0 00-6.6 8.3c-1.6 3-3.7 7.7-2 11.1a6.3 6.3 0 001.3 2.6 4.1 4.1 0 002.7 1.2c3.7.6 6.6-1.5 9.3-4l5.8-5.2 1.2-1 .6-.4a34.7 34.7 0 013.3-2l1.6-.8.3-.1h.1c1.2-.4 2.4-.8 3.7-1l1.3-.1h1.8l3 .8.4.2 1.3.7 1.3.8 1 1 .5.4.1.2.2.3a17.1 17.1 0 002.2 2.7c.5.4.5.3.4.2a10.6 10.6 0 003.2 3c3.4 2 9.2 1.1 11-2.9a10.7 10.7 0 001.2-4.9c0-.8-.1-1.7-.3-2.5zM672 1340.4a15 15 0 00-3-1.5 25.8 25.8 0 00-2.5-1c-.2-.1-.1 0-.2 0l-.4-.3a9 9 0 00-2.2-1 11 11 0 00-3.8-.2 23.5 23.5 0 00-8.1 2.1 32.2 32.2 0 00-5.3 3c-6.5 4.6-13.2 12.1-14 20.5a31.7 31.7 0 00-14 7.9 26 26 0 00-6.1 10 19.6 19.6 0 00-.5 10.7c.5 3.1 5.4 3.7 6.8.9a37.6 37.6 0 017.5-10.7l2.7-2.5.5-.4c-.4.3-.4.3 0 0l1.4-1a14.2 14.2 0 015.7-2.2l1-.2 1.2-.1h3l1.1.2 2 .5 1.5.5.7.3a39.5 39.5 0 016 3.7l1.4 1c.4.2 2.5 1.3 1.5.6a10 10 0 003.3 1.4c1.3.6 2.8 1.1 4.3.3a4.2 4.2 0 001.8-4l.1-1.3-.2-2-1-2.2a14.3 14.3 0 00-4-5.3 30.9 30.9 0 00-15-6.7l1-1.6 1-1.6.5-.5.6-.7a31.8 31.8 0 013.6-3.4 4.6 4.6 0 01.9-.7 33.8 33.8 0 014-2.4 4.8 4.8 0 001.1-.5c-.2.4-1 .5 0 0l3.3-1.3 1-.4a15.4 15.4 0 003-1.4l1-.7.4-.5a7 7 0 001.3-.5 3.4 3.4 0 01.8-.3l3-.6c1.8-.5 1.8-3 .4-3.9z" transform="translate(-40.8 -225.4)"/>
  <path class="cls-10" d="M664.1 1373.3c-.1-.3 0-.2 0 0zM878.1 1360.7v-.2a8.6 8.6 0 00-.4-2.3 17.3 17.3 0 00-.1-2 2.3 2.3 0 00-2.5-1.8 32 32 0 00-12-9.3 32.6 32.6 0 00-20.1-3.1 25 25 0 00-15.7 10.3c-3.8 5.3-5 13.2-.3 18.2 2.4 2.6 6.1 1.5 8-1l.4-.6a7.5 7.5 0 001-1.7l-.5.5 1.1-1.4c.4-.4.4-.9.7-1.3l.6-1h.1l1.9-2 .4-.5.8-.5a25.7 25.7 0 012.4-1.5l1-.5h.2l1.5-.4c.4-.1 1.6-.1 1-.2h2.1a12.4 12.4 0 011.4.3 31 31 0 013 .9h.1l1.6.8a31.3 31.3 0 012.7 1.6l.7.5.7.6c2 1.7 4.3 3.9 6.7 5 3.7 1.6 8.2 1.1 10.4-2.7a8.1 8.1 0 001.2-4l-.1-.7zM1171 1152.7l2.9 2.9c-4-6.1-12-6-18.4-4.8a30 30 0 00-11.7 5.1 27.9 27.9 0 00-10.3 12.5 17.3 17.3 0 00-1.3 7c.2 2.4.5 4.5 2.2 6.4l.3.2.3.6c2 3 6.5 3.4 8.4 0a7 7 0 00.4-.7 9 9 0 001.8-1.8l1.7-3.1 1-1.6.3-.4-.7 1c.1-.6 1.2-1.5 1.5-2l.7-1 .7-.6c.4-.5.8-1 1.3-1.3l.3-.2a34.8 34.8 0 013-1.9l.7-.3 1-.4a22.8 22.8 0 012.5-.6 21 21 0 014.2 0l-2.3-.3a32.5 32.5 0 004.3.5 27.6 27.6 0 003-.3l-1.4.2a9 9 0 002.4-.3 8 8 0 005.7-7.4c.2-3.4-2-5.7-4.5-7.4zM1206 1041.8c0-2.8-1.7-5-3.6-6.9a32 32 0 00-6.8-5.2 30 30 0 00-32.4 1.4 25.6 25.6 0 00-6.8 7 22.8 22.8 0 00-1.8 3l-.6 1.6-.2 1.5-.3 1.5c-.6 4 2.4 8 6.8 6.8a5.3 5.3 0 002.4-1.5l.9-1 1.2-1c.8-.7 1.4-1.5 2-2.2s1.5-1.2 2.2-1.8l.9-.7a5.9 5.9 0 01.5-.4 25.2 25.2 0 012.3-1.4l1.3-.7h.3a29.6 29.6 0 013-.9l1-.1h3.5l1.5.4 1.5.5.8.3.8.3 1 .6 1.4.9.5.3a22.2 22.2 0 012 1.8 11.2 11.2 0 003.7 3 8.8 8.8 0 003.4.8l2-.3h-.6a4.8 4.8 0 005-3.3c.3-.7.4-1 0 0a12.3 12.3 0 001.1-4.3z" transform="translate(-40.8 -225.4)"/>
  <path class="cls-11" d="M562.6 1262a2.7 2.7 0 00-2.6-2 7 7 0 01-4-.2h-1.3l3 .8a8.3 8.3 0 00-4.6-1l-1.7.2a31 31 0 00-3.7.2c-3.4.4-6.5.8-9.6 2.5a18.5 18.5 0 00-6.8 6.5c-1.6 2.7-2.4 6.7-1.1 9.7a7.3 7.3 0 002.2 3.2 6 6 0 002.6 1.2l1.3.6a4.8 4.8 0 005.1-1.8 4.7 4.7 0 00.8-3.7 7.7 7.7 0 000-1.2v.4a4.7 4.7 0 01.1-.7v.1a1.3 1.3 0 010-.2l.5-.8a9.9 9.9 0 01.7-.7l1.2-.7a13.8 13.8 0 012-.5 48 48 0 005.2-.6l2.5-.6a15.4 15.4 0 001.8-.6 8.2 8.2 0 003.6-3.2l-2.2 2.2a15 15 0 002.9-2 5.7 5.7 0 001.6-4.1 5.3 5.3 0 00.5-3zM758.4 1263.7c-7-5.8-18.6-6.7-27.4-5.7a52.2 52.2 0 00-25.4 9.6 46.3 46.3 0 00-16.1 20.6 30 30 0 00-2.5 12.2c.2 2.3 1.6 9.1 5.5 7.6 2.6-1 4.5-3.8 5.9-6.3a85.4 85.4 0 014.9-8.2 48.8 48.8 0 0112-12.2 36.3 36.3 0 0116.3-5.8 52.3 52.3 0 019.7.2c3.2.5 7.5 2.3 11.2 2.4 6.8.3 11.6-9.7 6-14.4zM872.3 1104.4a16.9 16.9 0 00-3.8-4.2l1.5 1.5a5.5 5.5 0 00-2-2.2c-2.6-2.7-7.6-3.6-10.9-3.5a33.5 33.5 0 00-10.9 2 37.1 37.1 0 00-10.2 5.9 18.5 18.5 0 00-6.2 9.8 4.3 4.3 0 001.2 4.2 4.7 4.7 0 001.5 1l.4.2a4.4 4.4 0 004.3-1.1l.9-.8c.6-.5-.6.4 0 0a44.3 44.3 0 003.5-2.5l1.5-1.3c.9-.7-.5.3.1 0 1.2-.8 2.3-1.6 3.6-2.3l1.3-.6 1.8-.7a32.8 32.8 0 014.2-1h1l2-.1c2.8 0 6.4.5 9.2-.7a6.7 6.7 0 002.2-.5l-2.2.6c1.3.1 2.6 0 3.8.2a2.6 2.6 0 002.2-4zM997.8 1266a18.7 18.7 0 00-2.9.5l-1.3.4a6.3 6.3 0 00-.6.2 6.8 6.8 0 00-2.3.2l-1.1.3c-.3.1-1.6.2-.2.2-2.6-.2-5.2 1-7.6 2.3a25 25 0 00-3.7 3l-2.6 2.4a37.5 37.5 0 00-4.8 6.3 16.8 16.8 0 00-2.9 7 7.3 7.3 0 00-.2 3.8l.3.7a2.4 2.4 0 00.2.7c.2.3.5.9 1 1 .1 0 1.3.4 1.7.2h.3a7.4 7.4 0 001.2 0 7.3 7.3 0 001.8-.9 4.3 4.3 0 001.8-.5l1.1-.8 2.6-1.8 3.6-2.9.2-.1 2.5-1.9 2.4-2.2c.8-.7 1.8-1.3 2.6-2.1s1.4-1.7 2.1-2.6a9.5 9.5 0 001.9-3.5v-.1l.5-.6a11 11 0 001-1.3 3.6 3.6 0 00.3-.8l2.8-3c1-1.5.6-4.4-1.7-4.1zM1112.8 1033.3a8.2 8.2 0 00-1.9-3.4 14.4 14.4 0 00-1.2-1.2 16.6 16.6 0 00-5.9-3.2 23.6 23.6 0 00-10.8-.5 19.9 19.9 0 00-3.7.9 17.4 17.4 0 00-5.5 3.2 15.9 15.9 0 00-3.3 3.7c-1 1.6-2.3 4-1.5 6v-2.3a14.2 14.2 0 00-.4 1.7c-.5 3.6 3.2 6 6 3.5l.4-.2c.9-.4 1.7-1 2.5-1.3l1.2-.5.7-.3 3.2-.7 1-.3H1096.7a29 29 0 013 .7 15.8 15.8 0 001.5.5l.8.4h.3l.6.2a11.3 11.3 0 001.7.4 16.1 16.1 0 003 1.6c3 1.1 6.5-1.7 6.4-4.9a9 9 0 00-1.3-4z" transform="translate(-40.8 -225.4)"/>
  <path class="cls-11" d="M1102.8 1040.2l-.4-.2a5 5 0 001 .4l-.6-.2z" transform="translate(-40.8 -225.4)"/>
  <path d="M282.8 1512.1c19.4-.7 38.6-3.7 57.7-7.1-10.4-8.5-17-21.7-14.1-35 2.7-12.7 11.8-22.8 20.5-32.6 47-53.1 89.6-111.4 134.3-167a66.5 66.5 0 011.3-6.6 79.6 79.6 0 0117-30.4 78 78 0 0117.4-14.3c6.1-3.8 13.3-6.3 17.8-12.4 6.6-9 9-20.4 16.1-29.4a87.3 87.3 0 0143-29.6 548.9 548.9 0 0167.2-51.8c58-37.7 123.5-62.3 189.3-83.6 10.6-3.4 21.4-6.6 32.2-10 15.8-9.8 35.3-14.6 55-15.8a1413 1413 0 01204.7-40.5 512.4 512.4 0 00-181.4 5.7c-44 9.5-86.4 25-128.7 40a1226.6 1226.6 0 00-122.6 48.7c-79.7 38.3-147 97.1-208.2 160.2a719 719 0 00-81.6 101.7c-22.3 33.3-44 67.4-71.6 96.6-25 26.3-59.6 45.2-79.6 75.9a53.5 53.5 0 00-10.6 26.6c0 13.9 14.6 11.2 24.9 10.7z" transform="translate(-40.8 -225.4)" fill="#f6b066"/>
</svg>
