<svg id="Layer_1" data-name="Layer 1" xmlns="http://www.w3.org/2000/svg" viewBox="0 0 1851.79 1347.41"><defs><style>.cls-1{fill:#8bbc30;}.cls-2{fill:#773016;}.cls-3{fill:#6f9227;}.cls-4{fill:#bad06b;}.cls-5{fill:#d38340;}.cls-6{fill:#b96e37;}.cls-7{fill:#e8a363;}.cls-8{fill:#f5c693;}.cls-9{fill:#e39b4e;}.cls-10{fill:#ee9d5b;}.cls-11{fill:#f9e9c6;}.cls-12{fill:#f6b066;}</style></defs><title>nuts look alike</title><path class="cls-1" d="M1222,893.1c11.62-22.26,27.46-42.82,43.28-62.76-4.6-10-3.85-23-3.61-33.68a259.17,259.17,0,0,1,5.27-46.28,271.85,271.85,0,0,1,13.45-45.3c5.4-13.68,13-29.27,24.38-39a4.29,4.29,0,0,1,7.06,4.18c-2.88,14.39-10.17,28.72-15.36,42.44a271.61,271.61,0,0,0-11.94,41,286.81,286.81,0,0,0-5.56,43c-.27,5.16-.07,10.73-.06,16.29,2.72-3.46,5.53-6.94,8.15-10.37,28.63-37.51,58-74.47,87.6-111.16,10.29-12.73,21-25.11,31.38-37.74-1.55-6.2-1.43-13.06-.89-19.21a270.59,270.59,0,0,1,5-31.9,211,211,0,0,1,8.51-31.05,98.49,98.49,0,0,1,6.64-14.1c2.62-4.63,6.73-8.75,10.43-12.62,1.81-1.89,5.49-.42,5.32,2.26a131.71,131.71,0,0,1-4.8,29.34c-2.9,10-6.09,19.81-8.59,29.88-2.3,9.26-3.9,18.61-5.49,28,14.88-17.9,29.47-36,44.64-53.69,15.65-18.22,31.29-36.46,47.24-54.41,12.24-13.78,26.67-35,44.69-41,2-.66,3.38,1.39,3.08,3.12-3.28,18.91-22.63,36.95-34.41,51.6q-17.85,22.23-35.74,44.44c1.88-.11,3.75-.26,5.59-.4,9.25-.71,18.49-1.61,27.74-2.34,17.74-1.42,36.46-5.39,54.22-2.48,3.34.54,3.42,5.38.84,6.86-15.89,9.1-36.34,10-54.16,10.87a240.4,240.4,0,0,1-28.66-.4,125.65,125.65,0,0,1-14.14-1.43q-43.51,54.66-86.52,109.72c-6.17,7.92-12.19,16-18.32,23.9,16.57-6.13,37.23-11.21,41.31-12.35,12.11-3.41,24.19-6.94,36.37-10.08,5.15-1.33,10.23-2.79,15.36-4.19,2.46-.67,5-.9,7.47-1.53s4.54-1.71,6.92-2.16a3.89,3.89,0,0,1,4.69,4.74c-3.12,11.07-13.55,17.09-23,21.86-11,5.56-23.84,7.54-35.86,10.33-13.74,3.19-27.46,6.72-41.37,9.12-6.43,1.11-13.12,2.55-19.65,2.83a51.3,51.3,0,0,1-6.4,0c-17.8,23.18-35.65,46.31-53.33,69.58-20.45,26.92-42.74,53.58-60.11,82.86,3.59-.44,7.42-1,10.6-1.33a368.8,368.8,0,0,0,83.34-17.61c52.88-17.82,103.27-45.42,149.13-77,86.46-59.59,155.57-150,163.63-257.53,4-53.29-1.67-108.54-11.46-161-.45-2.43-.54-6.77-1.95-8.82-3.38-4.92-3.61-3.1-9.24-1.75s-11.56,5.41-16.79,7.86l-36.36,17c-24.76,11.59-49.57,23.08-74.25,34.83-47.88,22.81-95.46,47.48-136.28,81.76a427.19,427.19,0,0,0-95.7,114.35,420.65,420.65,0,0,0-50.49,144.34C1218.58,814.61,1220.84,853.68,1222,893.1Z" transform="translate(-40.82 -225.41)"/><path class="cls-2" d="M1207.37,916.22a29.79,29.79,0,0,0-4.16,6.13c-9.18,10.26,3.65,29.42,18.44,21.87,10.62-5.42,17.89-10.82,30.2-12.56s24.51-2.25,36.71-4c27.35-4,54.09-11.45,79.92-21.24,51.4-19.49,100.57-46.75,144.83-79.3C1603.82,760.52,1675.05,667,1684.9,552c4.92-57.42-4.23-116.88-14.8-173.25-4-21.19-17.83-36.76-40.62-29-27.28,9.34-53.68,24.92-79.78,37.18-53.67,25.2-108.6,49.2-157.8,82.66a451.69,451.69,0,0,0-113.85,111.5,440.19,440.19,0,0,0-73.31,170.35C1194.65,803.27,1189.94,864.69,1207.37,916.22Zm67.93-285.77A427.19,427.19,0,0,1,1371,516.1c40.82-34.28,88.4-59,136.28-81.76,24.68-11.75,49.49-23.24,74.25-34.83l36.36-17c5.23-2.45,11.19-6.51,16.79-7.86s5.86-3.17,9.24,1.75c1.41,2.05,1.5,6.39,1.95,8.82,9.79,52.42,15.46,107.67,11.46,161-8.06,107.49-77.17,197.94-163.63,257.53-45.86,31.61-96.25,59.21-149.13,77a368.8,368.8,0,0,1-83.34,17.61c-3.18.31-7,.89-10.6,1.33,17.37-29.28,39.66-55.94,60.11-82.86,17.68-23.27,35.53-46.4,53.33-69.58a51.3,51.3,0,0,0,6.4,0c6.53-.28,13.22-1.72,19.65-2.83,13.91-2.4,27.63-5.93,41.37-9.12,12-2.79,24.81-4.77,35.86-10.33,9.48-4.77,19.91-10.79,23-21.86a3.89,3.89,0,0,0-4.69-4.74c-2.38.45-4.56,1.55-6.92,2.16s-5,.86-7.47,1.53c-5.13,1.4-10.21,2.86-15.36,4.19-12.18,3.14-24.26,6.67-36.37,10.08-4.08,1.14-24.74,6.22-41.31,12.35,6.13-7.94,12.15-16,18.32-23.9q42.9-55.12,86.52-109.72a125.65,125.65,0,0,0,14.14,1.43,240.4,240.4,0,0,0,28.66.4c17.82-.9,38.27-1.77,54.16-10.87,2.58-1.48,2.5-6.32-.84-6.86-17.76-2.91-36.48,1.06-54.22,2.48-9.25.73-18.49,1.63-27.74,2.34-1.84.14-3.71.29-5.59.4q17.83-22.24,35.74-44.44c11.78-14.65,31.13-32.69,34.41-51.6.3-1.73-1.09-3.78-3.08-3.12-18,6-32.45,27.19-44.69,41-16,17.95-31.59,36.19-47.24,54.41-15.17,17.66-29.76,35.79-44.64,53.69,1.59-9.39,3.19-18.74,5.49-28,2.5-10.07,5.69-19.93,8.59-29.88a131.71,131.71,0,0,0,4.8-29.34c.17-2.68-3.51-4.15-5.32-2.26-3.7,3.87-7.81,8-10.43,12.62a98.49,98.49,0,0,0-6.64,14.1,211,211,0,0,0-8.51,31.05,270.59,270.59,0,0,0-5,31.9c-.54,6.15-.66,13,.89,19.21-10.39,12.63-21.09,25-31.38,37.74-29.65,36.69-59,73.65-87.6,111.16-2.62,3.43-5.43,6.91-8.15,10.37,0-5.56-.21-11.13.06-16.29a286.81,286.81,0,0,1,5.56-43,271.61,271.61,0,0,1,11.94-41c5.19-13.72,12.48-28.05,15.36-42.44a4.29,4.29,0,0,0-7.06-4.18c-11.38,9.73-19,25.32-24.38,39a271.85,271.85,0,0,0-13.45,45.3,259.17,259.17,0,0,0-5.27,46.28c-.24,10.65-1,23.67,3.61,33.68-15.82,19.94-31.66,40.5-43.28,62.76-1.15-39.42-3.41-78.49,2.82-118.31A420.65,420.65,0,0,1,1275.3,630.45Z" transform="translate(-40.82 -225.41)"/><path class="cls-3" d="M1265.27,830.34c-4.6-10-3.85-23-3.61-33.68,0-1.95.31-3.88.4-5.82-2.87-5.3-4.15-11.52-5.15-17.54A360.2,360.2,0,0,1,1254.4,673a424.42,424.42,0,0,0-29.59,101.8c-6.23,39.82-4,78.89-2.82,118.31C1233.61,870.84,1249.45,850.28,1265.27,830.34Z" transform="translate(-40.82 -225.41)"/><path class="cls-3" d="M1657.33,546.16c4-53.29-1.67-108.54-11.46-161-.45-2.43-.54-6.77-1.95-8.82-3.38-4.92-3.6-3.11-9.24-1.75-4.12,1-8.36,3.37-12.44,5.57q-55.08,74.15-110.17,148.28c.67-.75,1.31-1.52,2-2.27,12.24-13.78,26.67-35,44.69-41,2-.66,3.38,1.39,3.08,3.12-3.28,18.91-22.63,36.95-34.41,51.6q-17.85,22.23-35.74,44.44c1.88-.11,3.75-.26,5.59-.4,9.25-.71,18.49-1.61,27.74-2.35,17.74-1.41,36.46-5.38,54.23-2.47,3.33.54,3.41,5.38.83,6.86-15.89,9.1-36.35,10-54.16,10.87a240.4,240.4,0,0,1-28.66-.4,125.65,125.65,0,0,1-14.14-1.43q-43.51,54.66-86.52,109.72c-6.17,7.92-12.19,16-18.32,23.9,16.57-6.13,37.23-11.21,41.31-12.35,12.11-3.4,24.19-6.94,36.37-10.08,5.15-1.33,10.23-2.79,15.36-4.19,2.46-.67,5-.9,7.47-1.53s4.54-1.71,6.92-2.16a3.89,3.89,0,0,1,4.69,4.74c-3.12,11.07-13.55,17.09-23,21.86-11,5.56-23.84,7.54-35.86,10.33-13.74,3.19-27.46,6.72-41.37,9.12-6.43,1.11-13.12,2.55-19.64,2.83a51.46,51.46,0,0,1-6.41,0c-17.8,23.18-35.66,46.31-53.33,69.58-20.45,26.92-42.74,53.58-60.11,82.86,3.59-.44,7.42-1,10.6-1.33a368.8,368.8,0,0,0,83.34-17.61c52.88-17.82,103.27-45.42,149.13-77C1580.17,744.1,1649.27,653.65,1657.33,546.16Z" transform="translate(-40.82 -225.41)"/><path class="cls-3" d="M1286.76,803a26.28,26.28,0,0,1-7.82,0c0,3.32,0,6.59,0,10C1281.53,809.64,1284.22,806.29,1286.76,803Z" transform="translate(-40.82 -225.41)"/><path class="cls-4" d="M1591.82,394.7l-10.29,4.81c-24.76,11.59-49.57,23.07-74.25,34.83-47.88,22.81-95.46,47.48-136.28,81.75a427.91,427.91,0,0,0-72.28,78.33l165-105.25C1508.4,460.69,1553.84,431.09,1591.82,394.7Z" transform="translate(-40.82 -225.41)"/><path class="cls-1" d="M1248.11,952.22c24.67,4.68,48.94,13.87,72.62,23.23,8.24-7.31,20.92-10.37,31.17-13.23a260.3,260.3,0,0,1,45.83-8.38,273.11,273.11,0,0,1,47.25-.27c14.66,1.21,31.79,4,44.4,12a4.28,4.28,0,0,1-2,8c-14.61,1.42-30.43-1.4-45.06-2.39a271.64,271.64,0,0,0-42.69.46,286.45,286.45,0,0,0-42.77,7.16c-5,1.23-10.29,3.05-15.61,4.67,4.1,1.6,8.25,3.27,12.29,4.79,44.2,16.52,88.07,33.85,131.79,51.59,15.16,6.16,30.11,12.8,45.21,19.08,5.49-3.28,12.09-5.15,18.13-6.42a273.59,273.59,0,0,1,32-4.46,211,211,0,0,1,32.19-.85,98.19,98.19,0,0,1,15.42,2.26c5.2,1.16,10.33,3.9,15.1,6.32,2.33,1.19,2,5.13-.62,5.74a131.05,131.05,0,0,1-29.47,3.92c-10.37.11-20.73-.08-31.09.45-9.53.49-18.94,1.67-28.38,2.86,21.44,9,43,17.76,64.33,27.16,22,9.69,44,19.37,65.77,29.42,16.74,7.72,41.18,15.39,52.17,30.89,1.21,1.71-.35,3.63-2.1,3.85-19,2.35-41.92-10.94-59.36-18q-26.45-10.65-52.89-21.32c.65,1.76,1.33,3.51,2,5.23,3.36,8.66,6.9,17.23,10.29,25.87,6.5,16.57,15.73,33.34,18.1,51.18.44,3.35-4.16,4.83-6.32,2.79-13.33-12.57-20.09-31.89-26.12-48.69a240.63,240.63,0,0,1-7.93-27.54,129.09,129.09,0,0,1-2.73-13.94q-64.92-25.8-130.1-51c-9.37-3.6-18.8-7-28.18-10.59,10.67,14.07,21.52,32.38,23.8,36,6.77,10.6,13.65,21.14,20.2,31.88,2.76,4.54,5.63,9,8.46,13.49,1.35,2.16,2.31,4.52,3.63,6.71s3,3.85,4.07,6a3.88,3.88,0,0,1-3.18,5.86c-11.5.23-20.28-8-27.59-15.7-8.53-9-14.13-20.62-20.29-31.32-7-12.23-14.39-24.33-20.73-36.94-2.92-5.84-6.24-11.82-8.41-18a49.81,49.81,0,0,1-1.8-6.14c-27.34-10.31-54.66-20.69-82.06-30.86-31.7-11.76-63.67-25.36-96.73-33.49,1.47,3.31,3.13,6.8,4.34,9.76a368.89,368.89,0,0,0,41,74.65c32.4,45.44,73.42,85.65,117,120.38,82.11,65.46,188.71,105.36,293.92,81.9,52.16-11.63,103.39-33.08,150.72-57.65,2.19-1.14,6.32-2.48,7.87-4.43,3.73-4.66,1.93-4.35-1-9.35s-8.54-9.49-12.39-13.78l-26.84-29.86c-18.27-20.34-36.46-40.75-54.87-61-35.71-39.21-73.12-77.59-117.76-106.71a427.14,427.14,0,0,0-137.2-58.42,420.59,420.59,0,0,0-152.78-6.46C1322.24,926.2,1285.51,939.69,1248.11,952.22Z" transform="translate(-40.82 -225.41)"/><path class="cls-2" d="M1221.74,944.94a29.44,29.44,0,0,0-7.06-2.2c-12.49-5.81-27.1,12-15.59,24,8.27,8.59,15.54,14,20.78,25.26s9.26,22.81,14.49,34a380.86,380.86,0,0,0,43.5,70.33c33.56,43.53,73.92,82.69,117.91,115.6,90,67.31,200.14,108.35,313,84.44,56.37-12,110.63-37.94,161.51-64.41,19.13-10,30-27.73,15.94-47.28-16.85-23.4-39.42-44.14-58.72-65.57-39.68-44-78.58-89.66-124.87-127A451.85,451.85,0,0,0,1562.9,915.4a440.13,440.13,0,0,0-184.29-20.75C1326.15,900,1266,913.31,1221.74,944.94Zm293.19-17.87a427.14,427.14,0,0,1,137.2,58.42c44.64,29.12,82,67.5,117.76,106.71,18.41,20.21,36.6,40.62,54.87,61L1851.6,1183c3.85,4.29,9.48,8.82,12.39,13.78s4.73,4.69,1,9.35c-1.55,1.95-5.68,3.29-7.87,4.43-47.33,24.57-98.56,46-150.72,57.65-105.21,23.46-211.81-16.44-293.92-81.9-43.55-34.73-84.57-74.94-117-120.38a368.89,368.89,0,0,1-41-74.65c-1.21-3-2.87-6.45-4.34-9.76,33.06,8.13,65,21.73,96.73,33.49,27.4,10.17,54.72,20.55,82.06,30.86a49.81,49.81,0,0,0,1.8,6.14c2.17,6.17,5.49,12.15,8.41,18,6.34,12.61,13.69,24.71,20.73,36.94,6.16,10.7,11.76,22.36,20.29,31.32,7.31,7.69,16.09,15.93,27.59,15.7a3.88,3.88,0,0,0,3.18-5.86c-1.12-2.14-2.8-3.92-4.07-6s-2.28-4.55-3.63-6.71c-2.83-4.51-5.7-9-8.46-13.49-6.55-10.74-13.43-21.28-20.2-31.88-2.28-3.57-13.13-21.88-23.8-36,9.38,3.56,18.81,7,28.18,10.59q65.21,25.08,130.1,51a129.09,129.09,0,0,0,2.73,13.94,240.63,240.63,0,0,0,7.93,27.54c6,16.8,12.79,36.12,26.12,48.69,2.16,2,6.76.56,6.32-2.79-2.37-17.84-11.6-34.61-18.1-51.18-3.39-8.64-6.93-17.21-10.29-25.87-.67-1.72-1.35-3.47-2-5.23q26.46,10.62,52.89,21.32c17.44,7,40.32,20.31,59.36,18,1.75-.22,3.31-2.14,2.1-3.85-11-15.5-35.43-23.17-52.17-30.89-21.81-10-43.8-19.73-65.77-29.42-21.3-9.4-42.89-18.11-64.33-27.16,9.44-1.19,18.85-2.37,28.38-2.86,10.36-.53,20.72-.34,31.09-.45a131.05,131.05,0,0,0,29.47-3.92c2.62-.61,3-4.55.62-5.74-4.77-2.42-9.9-5.16-15.1-6.32a98.19,98.19,0,0,0-15.42-2.26,211,211,0,0,0-32.19.85,273.59,273.59,0,0,0-32,4.46c-6,1.27-12.64,3.14-18.13,6.42-15.1-6.28-30-12.92-45.21-19.08-43.72-17.74-87.59-35.07-131.79-51.59-4-1.52-8.19-3.19-12.29-4.79,5.32-1.62,10.59-3.44,15.61-4.67a286.45,286.45,0,0,1,42.77-7.16,271.64,271.64,0,0,1,42.69-.46c14.63,1,30.45,3.81,45.06,2.39a4.28,4.28,0,0,0,2-8c-12.61-8.07-29.74-10.82-44.4-12a273.11,273.11,0,0,0-47.25.27,260.3,260.3,0,0,0-45.83,8.38c-10.25,2.86-22.93,5.92-31.17,13.23-23.68-9.36-48-18.55-72.62-23.23,37.4-12.53,74.13-26,114-31.61A420.59,420.59,0,0,1,1514.93,927.07Z" transform="translate(-40.82 -225.41)"/><path class="cls-3" d="M1320.73,975.45c8.24-7.31,20.92-10.37,31.17-13.23,1.88-.53,3.81-.83,5.7-1.31,4.23-4.28,9.82-7.3,15.29-10a360.43,360.43,0,0,1,95.27-31.5,424.06,424.06,0,0,0-106,1.21c-39.91,5.59-76.64,19.08-114,31.61C1272.78,956.9,1297.05,966.09,1320.73,975.45Z" transform="translate(-40.82 -225.41)"/><path class="cls-3" d="M1706.4,1268.23c52.16-11.62,103.39-33.08,150.72-57.65,2.19-1.14,6.32-2.48,7.87-4.43,3.73-4.66,1.93-4.35-1-9.35-2.15-3.65-5.65-7-8.94-10.29l-173.86-62.42c.91.42,1.84.81,2.75,1.23,16.74,7.72,41.18,15.39,52.17,30.89,1.21,1.71-.35,3.63-2.1,3.85-19,2.35-41.92-10.94-59.36-18q-26.45-10.65-52.89-21.32c.65,1.76,1.33,3.51,2,5.23,3.36,8.66,6.9,17.23,10.29,25.87,6.5,16.57,15.73,33.34,18.1,51.18.44,3.35-4.16,4.83-6.32,2.79-13.33-12.57-20.09-31.9-26.12-48.69a240.63,240.63,0,0,1-7.93-27.54,129.09,129.09,0,0,1-2.73-13.94q-64.92-25.8-130.1-51c-9.37-3.61-18.8-7-28.18-10.6,10.67,14.07,21.52,32.38,23.8,36,6.77,10.6,13.65,21.14,20.2,31.88,2.76,4.54,5.63,9,8.46,13.49,1.35,2.16,2.31,4.52,3.63,6.7s3,3.86,4.07,6a3.88,3.88,0,0,1-3.18,5.86c-11.5.23-20.28-8-27.59-15.7-8.53-9-14.13-20.62-20.29-31.32-7-12.22-14.39-24.33-20.72-36.94-2.93-5.84-6.25-11.82-8.42-18a49.81,49.81,0,0,1-1.8-6.14c-27.34-10.31-54.66-20.69-82.06-30.86-31.7-11.76-63.67-25.36-96.73-33.49,1.47,3.31,3.13,6.8,4.34,9.76a369.38,369.38,0,0,0,41,74.65c32.4,45.44,73.42,85.65,117,120.37C1494.59,1251.79,1601.19,1291.69,1706.4,1268.23Z" transform="translate(-40.82 -225.41)"/><path class="cls-3" d="M1353.15,988.08a26.32,26.32,0,0,1-2.26-7.49c-3.19,1-6.33,1.87-9.6,2.87C1345.25,985,1349.24,986.6,1353.15,988.08Z" transform="translate(-40.82 -225.41)"/><path class="cls-4" d="M1832.35,1161.6l-7.59-8.44c-18.27-20.34-36.46-40.75-54.87-61-35.71-39.21-73.12-77.59-117.76-106.71A427.45,427.45,0,0,0,1556.21,939l148.59,127.41C1745,1100.92,1786.51,1135.82,1832.35,1161.6Z" transform="translate(-40.82 -225.41)"/><path class="cls-1" d="M1188.08,839.24c-7.31-24-19.07-47.16-30.93-69.69,6.37-9,8-21.91,9.78-32.42a259,259,0,0,0,3.38-46.46,272.88,272.88,0,0,0-4.85-47c-2.78-14.44-7.36-31.17-16.75-42.83a4.29,4.29,0,0,0-7.71,2.8c.18,14.68,4.69,30.11,7.26,44.55a272.62,272.62,0,0,1,4.15,42.48,287.53,287.53,0,0,1-2.49,43.3c-.69,5.11-1.92,10.55-3,16-2-3.89-4.14-7.84-6.09-11.7-21.2-42.15-43.17-83.89-65.54-125.44-7.75-14.4-16-28.54-23.85-42.88,2.67-5.8,3.81-12.57,4.43-18.71a273.9,273.9,0,0,0,1-32.28,211.53,211.53,0,0,0-2.63-32.09,98.26,98.26,0,0,0-3.91-15.08c-1.72-5.05-5-9.85-7.92-14.33-1.43-2.2-5.31-1.44-5.65,1.23a131.26,131.26,0,0,0-.7,29.72c1,10.32,2.32,20.6,2.91,31,.55,9.52.39,19,.23,28.53-11.32-20.34-22.31-40.86-34-61-12-20.8-24-41.61-36.35-62.21-9.49-15.8-19.76-39.27-36.35-48.52-1.83-1-3.58.74-3.6,2.49-.28,19.19,15.41,40.5,24.27,57.08q13.44,25.14,26.91,50.28c-1.82-.46-3.64-.95-5.42-1.43-9-2.4-17.87-5-26.83-7.43-17.17-4.67-34.84-12-52.83-12.46-3.38-.08-4.36,4.66-2.09,6.59,13.93,11.88,33.88,16.51,51.22,20.69a240.93,240.93,0,0,0,28.24,4.91,125.17,125.17,0,0,0,14.16,1.21q32.65,61.76,64.74,123.83c4.59,8.92,9,17.93,13.58,26.87-15.14-9.09-34.51-17.9-38.31-19.78-11.27-5.58-22.5-11.29-33.88-16.63-4.81-2.26-9.53-4.63-14.32-7-2.3-1.11-4.75-1.8-7.06-2.88s-4.15-2.52-6.41-3.4a3.88,3.88,0,0,0-5.48,3.79c1,11.46,10.16,19.3,18.59,25.74,9.83,7.51,22,11.82,33.34,16.78,12.91,5.68,25.74,11.68,39,16.61,6.12,2.28,12.43,4.93,18.79,6.42a50,50,0,0,0,6.31,1.13c13.2,26.07,26.47,52.1,39.54,78.24,15.12,30.25,32.09,60.56,43.76,92.55-3.46-1.1-7.11-2.38-10.18-3.26a369,369,0,0,1-78.65-32.73c-48.67-27.29-93.08-63.73-132.31-103.26-74-74.56-125.15-176.23-113.2-283.35,5.92-53.11,21.72-106.36,41-156.07.89-2.3,1.78-6.55,3.55-8.31,4.23-4.21,4.11-2.38,9.4,0s10.36,7.45,15,10.82L926,287.68c22.19,16,44.45,31.84,66.53,48,42.84,31.27,85,64.31,118.81,105.54a427.38,427.38,0,0,1,72.92,130.08,420.63,420.63,0,0,1,22.92,151.18C1206,762.73,1196.5,800.71,1188.08,839.24Z" transform="translate(-40.82 -225.41)"/><path class="cls-2" d="M1231.22,703.28a440.25,440.25,0,0,0-40.56-181,451.73,451.73,0,0,0-91.27-130.63c-42.16-42-91.71-75.72-139.79-110.41-23.39-16.87-46.45-37.06-71.54-51.28-20.95-11.88-37.44.86-45.27,21C822,304.39,802,361.13,796.22,418.47c-11.58,114.79,41.13,219.87,117.77,302,37.48,40.17,80.76,76.06,127.67,104.72,23.58,14.4,48.47,26.67,74.62,35.64,11.65,4,23.67,6.79,35.33,10.74s17.92,10.63,27.35,17.93c13.15,10.15,29.3-6.3,22.17-18.09a29.21,29.21,0,0,0-3-6.78C1224.84,817.24,1231.56,756,1231.22,703.28Zm-24,19.16c-1.23,40.29-10.68,78.27-19.1,116.8-7.31-24-19.07-47.16-30.93-69.69,6.37-9,8-21.91,9.78-32.42a259,259,0,0,0,3.38-46.46,272.88,272.88,0,0,0-4.85-47c-2.78-14.44-7.36-31.17-16.75-42.83a4.29,4.29,0,0,0-7.71,2.8c.18,14.68,4.69,30.11,7.26,44.55a272.62,272.62,0,0,1,4.15,42.48,287.53,287.53,0,0,1-2.49,43.3c-.69,5.11-1.92,10.55-3,16-2-3.89-4.14-7.84-6.09-11.7-21.2-42.15-43.17-83.89-65.54-125.44-7.75-14.4-16-28.54-23.85-42.88,2.67-5.8,3.81-12.57,4.43-18.71a273.9,273.9,0,0,0,1-32.28,211.53,211.53,0,0,0-2.63-32.09,98.26,98.26,0,0,0-3.91-15.08c-1.72-5.05-5-9.85-7.92-14.33-1.43-2.2-5.31-1.44-5.65,1.23a131.26,131.26,0,0,0-.7,29.72c1,10.32,2.32,20.6,2.91,31,.55,9.52.39,19,.23,28.53-11.32-20.34-22.31-40.86-34-61-12-20.8-24-41.61-36.35-62.21-9.49-15.8-19.76-39.27-36.35-48.52-1.83-1-3.58.74-3.6,2.49-.28,19.19,15.41,40.5,24.27,57.08q13.44,25.14,26.91,50.28c-1.82-.46-3.64-.95-5.42-1.43-9-2.4-17.87-5-26.83-7.43-17.17-4.67-34.84-12-52.83-12.46-3.38-.08-4.36,4.66-2.09,6.59,13.93,11.88,33.88,16.51,51.22,20.69a240.93,240.93,0,0,0,28.24,4.91,125.17,125.17,0,0,0,14.16,1.21q32.65,61.76,64.74,123.83c4.59,8.92,9,17.93,13.58,26.87-15.14-9.09-34.51-17.9-38.31-19.78-11.27-5.58-22.5-11.29-33.88-16.63-4.81-2.26-9.53-4.63-14.32-7-2.3-1.11-4.75-1.8-7.06-2.88s-4.15-2.52-6.41-3.4a3.88,3.88,0,0,0-5.48,3.79c1,11.46,10.16,19.3,18.59,25.74,9.83,7.51,22,11.82,33.34,16.78,12.91,5.68,25.74,11.68,39,16.61,6.12,2.28,12.43,4.93,18.79,6.42a50,50,0,0,0,6.31,1.13c13.2,26.07,26.47,52.1,39.54,78.24,15.12,30.25,32.09,60.56,43.76,92.55-3.46-1.1-7.11-2.38-10.18-3.26a369,369,0,0,1-78.65-32.73c-48.67-27.29-93.08-63.73-132.31-103.26-74-74.56-125.15-176.23-113.2-283.35,5.92-53.11,21.72-106.36,41-156.07.89-2.3,1.78-6.55,3.55-8.31,4.23-4.21,4.11-2.38,9.4,0s10.36,7.45,15,10.82L926,287.68c22.19,16,44.45,31.84,66.53,48,42.84,31.27,85,64.31,118.81,105.54a427.38,427.38,0,0,1,72.92,130.08A420.63,420.63,0,0,1,1207.18,722.44Z" transform="translate(-40.82 -225.41)"/><path class="cls-3" d="M1157.15,769.55c6.37-9,8-21.91,9.78-32.42.32-1.92.41-3.87.68-5.8,3.8-4.67,6.21-10.56,8.31-16.28a360.8,360.8,0,0,0,21-98.12,424,424,0,0,1,10.25,105.51c-1.23,40.29-10.68,78.27-19.1,116.8C1180.77,815.22,1169,792.08,1157.15,769.55Z" transform="translate(-40.82 -225.41)"/><path class="cls-3" d="M824.39,417.79c5.92-53.11,21.72-106.36,41-156.07.89-2.3,1.78-6.55,3.55-8.31,4.23-4.21,4.11-2.38,9.4,0,3.87,1.73,7.59,4.85,11.2,7.77l80.84,166.09c-.51-.86-1-1.73-1.51-2.6-9.49-15.8-19.76-39.27-36.35-48.52-1.83-1-3.58.74-3.61,2.49-.27,19.19,15.42,40.5,24.28,57.08q13.44,25.14,26.91,50.28c-1.82-.46-3.64-.95-5.42-1.43-9-2.4-17.87-5-26.83-7.43-17.17-4.67-34.84-12-52.83-12.46-3.38-.08-4.35,4.66-2.09,6.59,13.93,11.88,33.88,16.51,51.22,20.69a240.93,240.93,0,0,0,28.24,4.91,125.17,125.17,0,0,0,14.16,1.21q32.65,61.76,64.74,123.83c4.59,8.92,9,17.93,13.58,26.87-15.14-9.09-34.51-17.9-38.31-19.78-11.27-5.58-22.5-11.29-33.88-16.63-4.81-2.26-9.53-4.63-14.32-7-2.3-1.11-4.75-1.8-7.06-2.88s-4.15-2.52-6.41-3.4a3.88,3.88,0,0,0-5.48,3.79c1,11.46,10.16,19.3,18.59,25.74,9.83,7.51,22,11.82,33.33,16.78,12.92,5.68,25.75,11.68,39,16.61,6.12,2.28,12.43,4.93,18.79,6.42a50.1,50.1,0,0,0,6.3,1.13c13.21,26.07,26.48,52.1,39.55,78.24,15.12,30.25,32.09,60.56,43.76,92.55-3.46-1.1-7.11-2.38-10.18-3.27a368.45,368.45,0,0,1-78.65-32.72c-48.67-27.29-93.08-63.73-132.31-103.26C863.63,626.58,812.44,524.91,824.39,417.79Z" transform="translate(-40.82 -225.41)"/><path class="cls-3" d="M1141.09,738.69a26.75,26.75,0,0,0,7.69,1.44c-.61,3.27-1.18,6.49-1.82,9.84C1145,746.21,1143,742.42,1141.09,738.69Z" transform="translate(-40.82 -225.41)"/><path class="cls-4" d="M916.78,281.05l9.22,6.63c22.19,16,44.45,31.84,66.53,48,42.84,31.27,85,64.31,118.81,105.54a427,427,0,0,1,56.55,90.34L1025.17,397.57C986.56,361.33,947.37,323.83,916.78,281.05Z" transform="translate(-40.82 -225.41)"/><path class="cls-5" d="M225.08,1212.78a1032.36,1032.36,0,0,0,146.8,28.45c99.25,11.52,199,6,298.3-2.55,95.37-8.18,191.26-22.94,280.87-57.89,78.13-30.47,156.53-77.23,210.25-142.71,28.89-35.21,49.12-75.95,49.48-122.21a180,180,0,0,0-40.22-114.42,10.06,10.06,0,0,1-1.54-10.31,325.4,325.4,0,0,0-27.86-25.69c-67.21-54.29-151.61-81.69-237-88.53-49.57-4-99.46-1.74-148.84,3.61s-99.6,12.54-148,24.25c-47.91,11.59-91.23,32-134.25,55.64-38.52,21.19-76.7,43.14-113.22,67.64-36,24.11-70.22,50.82-100.68,81.64-31.49,31.87-55.76,68.25-80,105.72-23.41,36.26-48.59,68.23-80.91,96.91-14.12,12.53-31.06,27.19-34.8,46.66-2.8,14.57,1.54,35.71,18.43,39.06,12,2.38,26.45-2.58,38.75-3a200.21,200.21,0,0,1,33.55,1.88C178.32,1200.07,201.67,1206.54,225.08,1212.78Zm446.34-77.23c-102.28,11-206.89,17.56-309.5,8.65a1.79,1.79,0,0,1,0-3.58c101.87-5.43,203.86-4.13,305.11-18.75,49.65-7.17,99.05-15.67,147.79-27.62s95.66-30,144.72-40.11c3.82-.78,6.19,4.29,2.7,6.39-43.51,26.06-94,38.14-143,49.6A1228.68,1228.68,0,0,1,671.42,1135.55Zm412.88-92c-22.18,22.17-52.16,36.44-80.68,48.91-28.06,12.27-57.29,24.26-87.9,27.47-.77.08-1-1.09-.39-1.43,27.53-14.16,57-24.12,84.78-37.92,27.33-13.56,53.1-30.49,81.38-41.88C1084.29,1037.6,1086.21,1041.67,1084.3,1043.58Zm34.57-58.33c-1.47,2.47-2.66,5.38-4.76,7.37a48.76,48.76,0,0,1-7.18,5.36,147.74,147.74,0,0,1-13.85,8.15,112.8,112.8,0,0,1-15.72,6.73,46.68,46.68,0,0,1-8,2.16c-2.54.3-5.31-.43-7.86-.71a.87.87,0,0,1-.6-1.46c1.72-1.83,3.19-4.17,5.17-5.71a70.61,70.61,0,0,1,7.08-4.35c4.42-2.69,9-5.12,13.45-7.81,4.59-2.77,9.22-5.45,13.68-8.44a55.77,55.77,0,0,1,7-4.3c2.38-1.11,5.14-1.35,7.68-2.06A3.48,3.48,0,0,1,1118.87,985.25Zm-38.25-123.4c1.1-.31,2-.47,3.12-.81a27.27,27.27,0,0,1,6.39-.79c3.91-.19,7.89.11,11.8.12,4.12,0,8.2-.06,12.31.23,2,.13,3.94.21,5.91.4a12.26,12.26,0,0,1,5.09,1.23,10.64,10.64,0,0,1,1.2.95c2.55.91,5.25,2.14,5.25,5.32s-2.87,4.37-5.41,5.29l-1,.81a9.33,9.33,0,0,1-3.63,1,38.26,38.26,0,0,1-4.42.22c-2.62,0-5.27.12-7.88-.1-5.58-.49-11.16-1.19-16.72-1.92a39,39,0,0,1-8.4-1.8c-1.42-.53-2.86-1.21-4.22-1.88a5.71,5.71,0,0,1-1.67-1.06c-.38-.38-.62-1.06-1.06-1.38-1.19-.88-1.67-3.07,0-3.83C1078.51,863.28,1079.2,862.25,1080.62,861.85ZM722,776.16c51.94-27.15,117.89-35,175.77-35.86a574.87,574.87,0,0,1,92.59,6.14c28.95,4.26,59.83,9.06,84.59,25.72a3.1,3.1,0,0,1-1.55,5.72c-28.91.43-57.31-8.15-85.73-12.33a631.89,631.89,0,0,0-89.9-6.61,703.82,703.82,0,0,0-89.92,5.23c-28.61,3.59-56.78,10.22-85.38,13.74C721.5,778,721.18,776.57,722,776.16Zm149.44,94.37c51.54-7.65,105-16.28,157.05-10.51,4.77.53,6.7,7.9,1.22,9C972.3,881,913,882.47,855.13,891.86c-103.81,16.84-205.8,44.47-304.26,81.36a1569.36,1569.36,0,0,0-146.95,63.94c-23.58,11.7-46.67,24.24-69.76,36.84-11.88,6.49-23.62,13.31-35.62,19.56-11.29,5.87-23.49,10.56-34.52,16.7-2,1.09-3.45-1.67-1.72-3,13-9.53,24.56-20.37,38.25-29.25,12-7.81,24.25-15.35,36.68-22.49q39.38-22.58,80-42.82A1508,1508,0,0,1,714.52,902.19,1545.56,1545.56,0,0,1,871.41,870.53Zm-674,199.74c19.83-35.81,53.61-66.47,83.84-93.37A833,833,0,0,1,380.35,901a876.17,876.17,0,0,1,111-61.37c18.31-8.44,36.91-16.36,55.77-23.5,21.74-8.22,42.06-12.55,64.89-15.65,4.32-.59,8.07,5.53,3.28,7.79-18.16,8.59-35.62,16.89-54.45,24.23-20,7.79-39.84,15.57-59.34,24.49a875.34,875.34,0,0,0-109.35,59.85,921.18,921.18,0,0,0-101.7,75.57c-30.43,26.13-57.71,57.08-89.5,81.43C198.76,1075.59,196.21,1072.38,197.38,1070.27Z" transform="translate(-40.82 -225.41)"/><path class="cls-5" d="M1224.63,873.87c3.25-1,6.69-1.75,9.91-2.5,6.54-1.53,13.12-2.93,19.63-4.6.67-.18,3.89-1.25,2.22-.52a16.26,16.26,0,0,0,1.65-.88l.61-1c-.9,1.53-.12,0,.1-.89.06-.21.07-.18.1-.31s0,0,0-.12a14.54,14.54,0,0,1,0-1.47c0-1.16,0-2.32-.11-3.48,0-.63-.46-3.67-.13-1.6-.18-1.12-.37-2.24-.56-3.36a105.88,105.88,0,0,0-3.08-13.41q-.57-1.82-1.26-3.6c-.23-.51-.47-1-.73-1.53-.43-.83-.89-1.66-1.38-2.46-.33-.54-.67-1.05-1-1.57l-.39-.5c.16.23-1-1.06-1-1-.33-.34-.67-.66-1-1s-.69-.64-1.07-.93c1.32,1-.15,0-.38-.16-.92-.51-1.8-1.08-2.77-1.5,1.1.47-1.51-.42-2-.55-.74-.19-1.51-.36-2.27-.48h-.18c-1.23-.09-2.45-.14-3.67-.11a27.12,27.12,0,0,0-6,.64c-5.07,1-10.1,2.53-15.09,3.92-1.31.36-2.64.81-4,1.17,1.25,2.69,2.67,5.27,3.76,8.06A198.15,198.15,0,0,1,1224.63,873.87Z" transform="translate(-40.82 -225.41)"/><path class="cls-2" d="M211.7,1232c25.85,7,51.74,13.59,78,18.9,106.18,21.45,213,23.14,320.71,16.39,104.87-6.57,211.07-17.79,311.35-50.74,85.07-28,167.24-72.12,228.09-139,30.66-33.73,59-71.75,71.48-116.25a191.13,191.13,0,0,0,6.12-66.23c4.84-.41,9.87-2,14.16-3,7-1.64,14.43-2.79,21.25-5.15,7.93-2.75,13.9-8.12,16.42-16.25,2.09-6.73,1.12-14-.19-20.74-2.34-12-5.77-24.52-14.24-33.79-9.91-10.84-24.73-12.76-38.47-10a73.85,73.85,0,0,0-21.24,8.26c-.73.4-1,1.09-1.6,1.58-2.08-3.6-4.11-7.21-6.37-10.7a6.79,6.79,0,0,0,0-8.5C1073.85,636.45,849.1,642.66,669.5,672.3c-50.34,8.31-100,18.18-147,38.67-45.36,19.77-88.75,45.25-131,70.88C311.13,830.61,237.1,888.61,184.22,967.37c-26.39,39.3-49.45,81.56-84.39,114.2-27.59,25.78-63.81,51.63-58.48,94.29,2,15.69,9.61,31.33,23.77,39.39,19.67,11.22,44.62,1.22,65.79,1.69C158.43,1217.57,185.29,1224.83,211.7,1232ZM1214.78,828.86c5-1.39,10-2.92,15.09-3.92a27.12,27.12,0,0,1,6-.64c1.22,0,2.44,0,3.67.11h.18c.76.12,1.53.29,2.27.48.47.13,3.08,1,2,.55,1,.42,1.85,1,2.77,1.5.23.13,1.7,1.19.38.16.38.29.72.61,1.07.93s.69.63,1,1c0,0,1.14,1.25,1,1l.39.5c.35.52.69,1,1,1.57.49.8,1,1.63,1.38,2.46.26.51.5,1,.73,1.53q.69,1.78,1.26,3.6a105.88,105.88,0,0,1,3.08,13.41c.19,1.12.38,2.24.56,3.36-.33-2.07.08,1,.13,1.6.08,1.16.12,2.32.11,3.48a14.54,14.54,0,0,0,0,1.47c0,.14,0,.06,0,.12s0,.1-.1.31c-.22.88-1,2.42-.1.89l-.61,1a16.26,16.26,0,0,1-1.65.88c1.67-.73-1.55.34-2.22.52-6.51,1.67-13.09,3.07-19.63,4.6-3.22.75-6.66,1.48-9.91,2.5a198.15,198.15,0,0,0-10.07-35.78c-1.09-2.79-2.51-5.37-3.76-8.06C1212.14,829.67,1213.47,829.22,1214.78,828.86ZM81.94,1198.05c-16.89-3.35-21.23-24.49-18.43-39.06,3.74-19.47,20.68-34.13,34.8-46.66,32.32-28.68,57.5-60.65,80.91-96.91,24.19-37.47,48.46-73.85,80-105.72,30.46-30.82,64.73-57.53,100.68-81.64,36.52-24.5,74.7-46.45,113.22-67.64,43-23.65,86.34-44,134.25-55.64,48.44-11.71,98.53-18.89,148-24.25s99.27-7.58,148.84-3.61c85.35,6.84,169.75,34.24,237,88.53A325.4,325.4,0,0,1,1169,791.14a10.06,10.06,0,0,0,1.54,10.31,180,180,0,0,1,40.22,114.42c-.36,46.26-20.59,87-49.48,122.21-53.72,65.48-132.12,112.24-210.25,142.71-89.61,35-185.5,49.71-280.87,57.89-99.26,8.51-199,14.07-298.3,2.55a1032.36,1032.36,0,0,1-146.8-28.45c-23.41-6.24-46.76-12.71-70.84-15.88a200.21,200.21,0,0,0-33.55-1.88C108.39,1195.47,94,1200.43,81.94,1198.05Z" transform="translate(-40.82 -225.41)"/><path class="cls-2" d="M201,1073.88c31.79-24.35,59.07-55.3,89.5-81.43a921.18,921.18,0,0,1,101.7-75.57A875.34,875.34,0,0,1,501.54,857c19.5-8.92,39.38-16.7,59.34-24.49,18.83-7.34,36.29-15.64,54.45-24.23,4.79-2.26,1-8.38-3.28-7.79-22.83,3.1-43.15,7.43-64.89,15.65-18.86,7.14-37.46,15.06-55.77,23.5a876.17,876.17,0,0,0-111,61.37,833,833,0,0,0-99.13,75.86c-30.23,26.9-64,57.56-83.84,93.37C196.21,1072.38,198.76,1075.59,201,1073.88Z" transform="translate(-40.82 -225.41)"/><path class="cls-2" d="M807.82,764.17a703.82,703.82,0,0,1,89.92-5.23,631.89,631.89,0,0,1,89.9,6.61c28.42,4.18,56.82,12.76,85.73,12.33a3.1,3.1,0,0,0,1.55-5.72c-24.76-16.66-55.64-21.46-84.59-25.72a574.87,574.87,0,0,0-92.59-6.14c-57.88.89-123.83,8.71-175.77,35.86-.79.41-.47,1.86.47,1.75C751,774.39,779.21,767.76,807.82,764.17Z" transform="translate(-40.82 -225.41)"/><path class="cls-2" d="M337.23,1055.57c-12.43,7.14-24.66,14.68-36.68,22.49-13.69,8.88-25.27,19.72-38.25,29.25-1.73,1.28-.24,4,1.72,3,11-6.14,23.23-10.83,34.52-16.7,12-6.25,23.74-13.07,35.62-19.56,23.09-12.6,46.18-25.14,69.76-36.84a1569.36,1569.36,0,0,1,147-63.94c98.46-36.89,200.45-64.52,304.26-81.36,57.89-9.39,117.17-10.9,174.55-22.8,5.48-1.14,3.55-8.51-1.22-9-52.08-5.77-105.51,2.86-157.05,10.51a1545.56,1545.56,0,0,0-156.89,31.66,1508,1508,0,0,0-297.25,110.56Q376.64,1033,337.23,1055.57Z" transform="translate(-40.82 -225.41)"/><path class="cls-2" d="M1077.24,867.69c.44.32.68,1,1.06,1.38a5.71,5.71,0,0,0,1.67,1.06c1.36.67,2.8,1.35,4.22,1.88a39,39,0,0,0,8.4,1.8c5.56.73,11.14,1.43,16.72,1.92,2.61.22,5.26.12,7.88.1a38.26,38.26,0,0,0,4.42-.22,9.33,9.33,0,0,0,3.63-1l1-.81c2.54-.92,5.41-2.07,5.41-5.29s-2.7-4.41-5.25-5.32a10.64,10.64,0,0,0-1.2-.95,12.26,12.26,0,0,0-5.09-1.23c-2-.19-3.94-.27-5.91-.4-4.11-.29-8.19-.22-12.31-.23-3.91,0-7.89-.31-11.8-.12a27.27,27.27,0,0,0-6.39.79c-1.1.34-2,.5-3.12.81-1.42.4-2.11,1.43-3.38,2C1075.57,864.62,1076.05,866.81,1077.24,867.69Z" transform="translate(-40.82 -225.41)"/><path class="cls-2" d="M959.54,1054.14c-49.06,10.06-96,28.15-144.72,40.11S716.68,1114.7,667,1121.87c-101.25,14.62-203.24,13.32-305.11,18.75a1.79,1.79,0,0,0,0,3.58c102.61,8.91,207.22,2.34,309.5-8.65a1228.68,1228.68,0,0,0,147.78-25.42c49.09-11.46,99.53-23.54,143-49.6C965.73,1058.43,963.36,1053.36,959.54,1054.14Z" transform="translate(-40.82 -225.41)"/><path class="cls-2" d="M1081.49,1038.73c-28.28,11.39-54,28.32-81.38,41.88-27.78,13.8-57.25,23.76-84.78,37.92-.65.34-.38,1.51.39,1.43,30.61-3.21,59.84-15.2,87.9-27.47,28.52-12.47,58.5-26.74,80.68-48.91C1086.21,1041.67,1084.29,1037.6,1081.49,1038.73Z" transform="translate(-40.82 -225.41)"/><path class="cls-2" d="M1115,980.18c-2.54.71-5.3,1-7.68,2.06a55.77,55.77,0,0,0-7,4.3c-4.46,3-9.09,5.67-13.68,8.44-4.44,2.69-9,5.12-13.45,7.81a70.61,70.61,0,0,0-7.08,4.35c-2,1.54-3.45,3.88-5.17,5.71a.87.87,0,0,0,.6,1.46c2.55.28,5.32,1,7.86.71a46.68,46.68,0,0,0,8-2.16,112.8,112.8,0,0,0,15.72-6.73,147.74,147.74,0,0,0,13.85-8.15,48.76,48.76,0,0,0,7.18-5.36c2.1-2,3.29-4.9,4.76-7.37A3.48,3.48,0,0,0,1115,980.18Z" transform="translate(-40.82 -225.41)"/><path class="cls-6" d="M1095.18,954.25c-45.06,27.28-95.74,43.75-146.33,58.42a2559.48,2559.48,0,0,1-503,92.59c-82.94,6.8-167.93,9.92-245.35,40.45-34,13.4-65.85,31.88-100.48,43.42a213.71,213.71,0,0,1-24.31,6.52,20.16,20.16,0,0,0,6.24,2.4c12,2.38,26.45-2.58,38.75-3a201.28,201.28,0,0,1,33.55,1.89c24.08,3.17,47.43,9.64,70.84,15.88a1032.36,1032.36,0,0,0,146.8,28.45c99.25,11.52,199,6,298.3-2.55,95.37-8.18,191.26-22.94,280.87-57.89,78.13-30.47,156.53-77.23,210.25-142.71,28.89-35.21,49.12-75.95,49.48-122.21a178.56,178.56,0,0,0-10.54-61.58C1172.72,894.5,1136.87,929,1095.18,954.25Zm-423.77,181.3c-102.27,11-206.88,17.56-309.49,8.65a1.79,1.79,0,0,1,0-3.58c101.87-5.43,203.85-4.13,305.11-18.75,49.65-7.16,99.05-15.67,147.79-27.63s95.66-30,144.72-40.1c3.82-.78,6.19,4.29,2.7,6.39-43.51,26.06-94,38.14-143,49.6A1228.5,1228.5,0,0,1,671.41,1135.55Zm412.89-92c-22.18,22.17-52.16,36.44-80.68,48.91-28.06,12.27-57.29,24.26-87.9,27.47-.77.08-1-1.09-.39-1.43,27.53-14.16,57-24.13,84.78-37.92,27.33-13.56,53.1-30.49,81.38-41.88C1084.29,1037.6,1086.21,1041.67,1084.3,1043.58Zm34.57-58.33c-1.47,2.47-2.66,5.38-4.76,7.37a48.76,48.76,0,0,1-7.18,5.36,147.74,147.74,0,0,1-13.85,8.15,112.8,112.8,0,0,1-15.72,6.73,46.68,46.68,0,0,1-8,2.16c-2.54.3-5.31-.43-7.86-.71a.87.87,0,0,1-.6-1.46c1.72-1.83,3.19-4.17,5.17-5.71a70.61,70.61,0,0,1,7.08-4.35c4.42-2.69,9-5.13,13.45-7.81,4.59-2.77,9.22-5.45,13.68-8.44a55.77,55.77,0,0,1,7-4.3c2.38-1.11,5.14-1.35,7.68-2.06A3.48,3.48,0,0,1,1118.87,985.25Z" transform="translate(-40.82 -225.41)"/><path class="cls-7" d="M812.67,699.06c-19.76-8.52-38.65-6-59.65-3.2-23.69,3.23-47.24,7.37-70.57,12.58a814,814,0,0,0-133.59,41.84,770.39,770.39,0,0,0-119.19,61.88c-19.19,12.22-38.19,25-55.82,39.37-13.63,11.12-36.78,24.74-39.78,43.37a2.59,2.59,0,0,0,2.45,3.22c17,.92,33.08-14.77,46.85-23.17,18.44-11.26,36.76-22.74,55.62-33.29a913.91,913.91,0,0,1,122.85-57.08,873.23,873.23,0,0,1,124.27-37.19c21.64-4.68,43.48-8.6,65.44-11.44,20.92-2.7,42.82-2.64,61.12-13.9C820.33,717.33,822.32,703.22,812.67,699.06Z" transform="translate(-40.82 -225.41)"/><path class="cls-7" d="M899.43,705.93a11.24,11.24,0,0,0-2.8-5c-1.78-2-4.17-2.8-6.56-3.8l2.85,1.2-4.45-1.91a20,20,0,0,0-8.17-1.23c-2.57,0-5.15,0-7.72-.06-3.57-.09-6.88,1-10.28,1.92-2.48.63-5,1.22-7.48,1.77a10.25,10.25,0,0,0-7.48,9.81,10.64,10.64,0,0,0,7.48,9.82,126.42,126.42,0,0,0,12.59,4.06c3.18.76,6.37.54,9.58.38s6.83-.05,9.86-1c6-1.84,13.16-6.84,12.89-13.76A11.57,11.57,0,0,0,899.43,705.93Z" transform="translate(-40.82 -225.41)"/><path class="cls-7" d="M1108.61,813c-18.88-18.69-51.42-16.28-76.21-17.52q-42.86-2.12-85.78-.88a578.7,578.7,0,0,0-84.21,8.26c-24.81,4.42-54.69,11.07-75.87,24.89-2.2,1.43-2,5.12.76,5.81,24.89,6.17,54.14,4.37,79.8,3.94,26.49-.44,53-1.52,79.52-2s53.13-.07,79.66,1.33c24.94,1.31,57.31,10.15,79.74-3.72C1113,828.74,1114.57,818.88,1108.61,813Z" transform="translate(-40.82 -225.41)"/><path class="cls-7" d="M380,964.92c-5.62.65-11.45,1-16.56,3.71-4.94,2.65-9.46,6.61-14,9.86-10.38,7.36-20.52,14.79-30.33,22.91l-27.47,22.74c-4.64,3.84-9,7.74-12.56,12.65-3.22,4.44-7.35,11.19-7.45,16.74,0,2.54,2,5.69,4.68,6.14,5.32.88,11-1.24,16-3.08,6.29-2.3,11.65-6.48,16.75-10.71l28.25-23.39c9.18-7.6,17.81-15.55,26.4-23.82,4.12-4,8.52-7.78,12.4-12,4.31-4.69,6.05-10.57,7.88-16.53C384.72,967.81,382.68,964.61,380,964.92Z" transform="translate(-40.82 -225.41)"/><path class="cls-7" d="M854.73,970.71c-25.65-10.26-53.13-7.53-79.78-2-26.05,5.4-52,11.37-78,17.16-50.65,11.3-103.43,26.88-149.46,51.06-3.89,2-1.73,7.43,2.08,7.71,52.86,3.89,108.21-2.84,160.36-11.69,26.34-4.46,52.74-8.61,79.06-13.17,26-4.5,51-12.86,70.48-31C866,982.72,861.82,973.54,854.73,970.71Z" transform="translate(-40.82 -225.41)"/><path class="cls-7" d="M941,963.59c-2.53-2.38-5-5.43-8.54-6.24a37.44,37.44,0,0,0-6.69-.55,29.36,29.36,0,0,0-7.93.3c-3.07.66-6.12,1.44-9.2,2.09a16.15,16.15,0,0,0-8.7,4.62c-1,1-1.91,1.92-2.87,2.86a9.16,9.16,0,0,0,1.84,14.24c1.16.68,2.32,1.34,3.49,2a15.73,15.73,0,0,0,9.74,2.13c3.73-.37,7.44-.83,11.15-1.32,2.95-.4,5.56-1.8,8.24-3.05,2.16-1,4.39-1.91,6.12-3.64,2.41-2.41,3.39-5.95,4.49-9.1A4.4,4.4,0,0,0,941,963.59Z" transform="translate(-40.82 -225.41)"/><path class="cls-7" d="M155.37,1107.82c-.28-.15-.56-.32-.85-.46a10.8,10.8,0,0,0-9.19-.37c-1.85.78-3.61,1.73-5.4,2.65l-4.77,2.43a28.88,28.88,0,0,0-4.46,3l-8.32,6.36a39.54,39.54,0,0,0-4,3,15.48,15.48,0,0,0-3.45,6.29,23,23,0,0,0-1.36,6.11,8.37,8.37,0,0,0,6.1,8,24.16,24.16,0,0,0,6,.3,14.86,14.86,0,0,0,7.36-1.74,27.17,27.17,0,0,0,2.27-1.73l8.82-6.74a42.3,42.3,0,0,0,5.87-5.14q1.8-2,3.61-3.95c2.09-2.3,4.45-4.55,5.3-7.65C159.89,1114.77,158.78,1109.63,155.37,1107.82Z" transform="translate(-40.82 -225.41)"/><path class="cls-5" d="M1086.85,1401.92c-75.14,47.68-159.63,78.88-246.52,97.06-94.67,19.81-189.85,20.75-286,14.92-52.48-3.19-105.31-6-157.5,2.16-24.48,3.81-48.71,9.1-73.22,12.73-11.7,1.74-24.76,3.93-37.64,4.75,31.25,10.64,64.52,10.9,98.41,11.63,50.84,1.08,101.69,1.73,152.52,2.79,89,1.85,178.53,6.75,267.49,3.16,43.86-1.77,87.77-6.85,130-19.15,40.82-11.88,79.47-30.44,116.54-51,35.28-19.6,70-42.08,99.38-69.85,30.34-28.64,54.11-63.14,76.37-98.21,22.49-35.44,46.12-72.33,61.42-111.56a240.92,240.92,0,0,0,7.78-24.67,509.44,509.44,0,0,1-35.64,60C1214.75,1303.12,1154.74,1358.82,1086.85,1401.92Z" transform="translate(-40.82 -225.41)"/><path class="cls-8" d="M599.12,1166.36A68.14,68.14,0,0,0,567,1188c-7.48,9.12-9.91,20.67-16.63,30.1-6.94,9.75-17.62,13.3-27.07,19.94A58.66,58.66,0,0,0,501.25,1269c-4,13.4-2.14,27.59-7,40.88-3.69,10-10.27,19.06-13,29.4-4.13,15.92,6,28.69,15.26,40.61,7.11,9.19,14.81,18.48,24,25.75,12.28,9.75,24.3,13,39.64,9.76,11-2.31,21.22-4.13,32.19-.5,12.36,4.1,22.47,12,36.09,11.94,15.58,0,24.07-8.47,36.33-16.17,10.72-6.73,21.23-5,32.06.41,12.88,6.38,24.81,11,39.49,10.87s25.7-7.19,39.58-9.52c12.74-2.14,21,4.59,32.4,8.42a49.39,49.39,0,0,0,36.53-2.37c10.16-4.9,17-14.16,26.25-20.39,11.37-7.66,24-8.15,37.21-9.39,14.42-1.35,26.28-7.14,38.77-14.09,26.69-14.86,54.29-29,80-45.46,12.13-7.77,19.9-17.24,28.85-28.19,6.9-8.42,14.8-13.54,25.47-15.92,13.51-3,24.94-4.31,36-13.68a55.67,55.67,0,0,0,18-28c3.21-12,4.7-23.1,17.3-28.76,10.26-4.61,21.84-3,32.1-8.44a53.18,53.18,0,0,0,23.32-24.81c4.27-9.42,4.44-20.74,12.53-28.18,8.57-7.88,21.57-5.35,29.55-13.73a24.11,24.11,0,0,0,3.74-28.26,11.26,11.26,0,0,1,4-15.13c17.61-10.65,14.63-39-3.15-47.58-7-3.41-6.61-10.61-2.8-15.39-8.89-12.35-22.87-29.06-38.85-18.82-4.43,2.84-10.65.89-13.23-3.47-13.91-23.49-43.25-35.18-69.82-29.65-13.32,2.77-22.76,14.46-36.27,11.65-15.17-3.15-30.38-6.62-46-5.49-8.58.63-17.06,2.63-24.52,7-6.22,3.67-10.86,9.49-17.42,12.62-14.18,6.78-33,.25-48-.78-33.23-2.28-76.81,4-87.37,41.59-1.83,6.51-8.86,8.71-14.56,5.92-23.9-11.69-54.43-3.32-68.88,19-6.09,9.41-10.94,19.86-21.45,25.11-12.5,6.24-25.28.62-38.34.65a65.56,65.56,0,0,0-39.32,13.73c-11.75,9-16.56,20.19-23.12,32.87C651.19,1171.26,622.1,1159.19,599.12,1166.36Zm577.13-50.25c2.53-11.82,15.94-17.18,26.76-17.84a36.27,36.27,0,0,1,14.27,2,39.09,39.09,0,0,1,7.34,3.4,19.12,19.12,0,0,1,7,7.41c1.82,4,1.59,8.17-1.49,11.52s-7.74,3.15-11.52,1.49a38.56,38.56,0,0,1-4.89-2.76,22.09,22.09,0,0,0-2.18-1.22c-1.83-.56-.84-.43-.07,0l.07,0,.51.15c-.41-.11-.81-.31-1.22-.45-.82-.29-1.65-.53-2.49-.74-.55-.14-1.66-.25-2-.3a29.74,29.74,0,0,0-3.79-.14c-.2,0-.56.06-.92.08-.76.15-1.53.3-2.29.51-.91.25-1.81.56-2.7.87l-.74.25c-1.54.8-2.91,1.76-4.39,2.65a12.44,12.44,0,0,1-2.28,1.2c-.49.32-.36.2.39-.34l-1.61,1.24c-.38.25-.91.17-1.36.33l0,0c-.13.08-.32,0-.45.09a10,10,0,0,1-2.63.63l1.49-.4c-2.12.55-4.57.31-6-1.3a3.7,3.7,0,0,0-.63-.62C1176.13,1121.91,1175.68,1118.8,1176.25,1116.11ZM1064,1092a38.12,38.12,0,0,1,9.22-13.45,51.64,51.64,0,0,1,30.48-13.89c11.16-1.13,23.75,1.58,33,8,4.66,3.23,9.55,7.25,10.62,13.11s-2.75,13.18-9.6,12.44a2.77,2.77,0,0,1-2.55-2.73c-.15-.15-.3-.3-.46-.44-.37-.32-1.75-1.51-2-1.72-.94-1-1.61-2.13-2.48-3.13.87,1-.73-.41-.17,0-2.45-1.59-6.07-4.16-9.36-5.49a35.58,35.58,0,0,0-20.22-1.89,35.1,35.1,0,0,0-17.57,9.91,91.68,91.68,0,0,0-7.43,8.33c-1.06,1.32-1.83,2.86-2.91,4.15-1.36,1.62-2.94,1.75-4.56,2.77a3,3,0,0,1-4.08-1.07c-1.49-2.89-2.63-4.49-2-8.08A38.24,38.24,0,0,1,1064,1092Zm-55.19,110.55a32,32,0,0,1,4.61-12,48.69,48.69,0,0,1,18.75-17.92,49.61,49.61,0,0,1,40.52-2.76c2.27.89,4.26,1.92,5.88,2.36.63.17.9.29.91.36a17,17,0,0,1,3.36-.22c6.79.75,10.79,6.88,7.61,13.27-2.94,5.93-10.12,7.25-16,5.94-4.16-.92-7.1-2.89-10.67-3.89a27,27,0,0,0-10.06-1.12,19.26,19.26,0,0,0-4,.4,40.32,40.32,0,0,0-5.38,1.45,29.28,29.28,0,0,0-13.93,10.79,108.83,108.83,0,0,0-5.37,9.62c-1,1.94-1.72,4-3.31,5.63a9,9,0,0,1-2.21,1.48c-.86.45-2.89.5-3.62,1a.8.8,0,0,1-.93-.12c-1.06-.85-2.66-1-3.76-2a8.45,8.45,0,0,1-2.43-3.83C1007.94,1208.25,1008.44,1205.33,1008.83,1202.55Zm-210.42-30.34c4.8-7.87,10.47-15.56,17.59-21.48,15-12.48,33.51-14.2,52.11-10.3,4.28.9,8.47,2.12,12.64,3.41a62.35,62.35,0,0,1,9.57-13.89c6.26-7.07,14.31-12.75,23.47-15.33a35.21,35.21,0,0,1,27.63,3.22c3.5,2.08,6.71,4.68,10.05,7s7.48,5.28,8.16,9.49c.1.1.19.21.3.3a2.76,2.76,0,0,1-.55,4.29c-.88.58-1,.59-.35,0l-1.13,1.46a7.6,7.6,0,0,1-3.59,1.91,12.29,12.29,0,0,1-6.58-.44c-4-1.18-7.11-3.6-10.48-5.91-5.45-3.74-10.48-6.57-17.24-5.39-7.27,1.26-13.25,5.57-18.21,10.84-3.13,3.32-5.85,7-8.75,10.41.05.14.16.22.22.37,1.68,4.47-.1,8.24-4.26,10.35-5,2.54-10.16,0-15.13-1.45-15.64-4.66-33.11-7.4-46.54,4.07-6,5.13-10.64,11.51-14.7,18.22-4.72,7.78-7.42,17-13.09,24.08-4.31,5.38-13,.67-13-5.38C786.49,1191.8,793.19,1180.79,798.41,1172.21ZM730.13,1330.1a60.92,60.92,0,0,1,19.34-21.75c14.27-10,32.22-12.07,48.76-8,2.82-12.12,10.74-22.72,23.32-27.1a37.56,37.56,0,0,1,25.5.68c4.3,1.68,8.42,3.82,11.6,7.24,4,4.25,4.6,7.76,4.07,13.43-.31,3.31-3.26,6.47-6.9,5.26-3.42-1.13-5.87-1.24-9.1-3.23a49.68,49.68,0,0,0-6.28-3.63,17.85,17.85,0,0,0-11.9-.85c-9.14,2.71-13.35,12.18-12.33,21.06.88,7.65-8.72,11.51-14.51,8.33-14.05-7.73-31.36-7.73-45,1a46.08,46.08,0,0,0-15.16,16.41,104.78,104.78,0,0,0-5.23,10.3c-1.25,2.94-1.74,5.38-4.68,6.9a3.36,3.36,0,0,1-3.92-.51C721.54,1350.16,727,1336.05,730.13,1330.1ZM690.91,1229a5.23,5.23,0,0,1-3.69,3.69c-8.47,2.2-15.76-5-24.1-5.73a38.86,38.86,0,0,0-23.94,6.08c-7.94,4.94-14.36,12.16-19.58,19.84a101,101,0,0,0-7.88,13.13,18.68,18.68,0,0,0-1.8,5.1c-.3,2.12.76,3.18-.67,2.15,9.73,7,1.51,21-9.36,16-11.45-5.29-25.71,2.29-32,12.07-9,13.9-6.07,31.64-6,47.3,0,5.47-7.21,7.13-10,2.72-12-18.92-10.19-46.07,3.57-63.74a46.29,46.29,0,0,1,36.4-18.11,45.89,45.89,0,0,1,5.85-16.3c7.06-12.39,15.76-24,27.23-32.64,10.91-8.2,24.52-13,38.28-12C673.94,1209.3,694,1214.35,690.91,1229Z" transform="translate(-40.82 -225.41)"/><path class="cls-9" d="M501.29,1200.6c-30.49,31.43-57.22,65.29-81.54,101.65-22.28,33.3-43.95,67.45-71.64,96.62-25,26.28-59.59,45.18-79.57,75.9-5,7.63-10.47,17.26-10.56,26.62-.12,13.89,14.55,11.17,24.82,10.75,22.93-.92,45.56-4.84,68.09-9,45.36-8.42,89.8-14.28,136.07-13.59,47.15.71,94.14,5.3,141.28,6.2,169.65,3.23,343-32.46,481.89-134.09,61.36-44.89,114.57-101.73,152.61-167.71,19-32.87,36.75-74.16,41-114.41,0-.55,0-1.09,0-1.63,0-.24.2-.33.23-.55,3.18-34.27-3.63-67.68-28.54-94.33a592,592,0,0,0-56.85-20.3c-83.15-25.18-172.74-29.39-257.73-11-44,9.51-86.42,24.9-128.76,39.92-41.43,14.7-82.87,29.64-122.52,48.72C629.88,1078.69,562.49,1137.51,501.29,1200.6Zm240.48-120.49c11.84,1.58,17.22.18,23.47-9.55,3.09-4.81,5.68-9.75,9.21-14.28a70.91,70.91,0,0,1,26.76-20.8,74.68,74.68,0,0,1,54.18-2.72C874,990.85,925.7,983,967.67,987.07c7.15.7,14.48,2.25,21.66,2.45,7.86.23,11.52-3.43,17.38-7.93a67.3,67.3,0,0,1,28.64-12.76c21.08-4,42.63-.17,63.31,4.59,35.91-24.26,87.53-14,112.75,20.55,24.13-8.2,44.89,13.37,57.93,32.76a7.74,7.74,0,0,1,1.29,6.21c25.12,16.64,27,55.17,6.11,75.75,6.24,20-1.68,43.36-20.62,54.1-6.74,3.83-17.18,3-20.82,10.49-2.51,5.19-2.6,12-4.85,17.48a75,75,0,0,1-25.34,31.76,74,74,0,0,1-17.48,9.55c-5.38,2.07-18.88,2.06-22.73,5.18-4.24,3.45-3.76,11.55-5.46,16.73a79.74,79.74,0,0,1-9.94,20.3,84.25,84.25,0,0,1-30.67,27.3c-13.37,6.8-33.8,5-43.34,16.64-9.26,11.33-17.61,21.42-29.78,29.9s-25.88,15.46-39,22.77c-27.66,15.45-57.65,38.21-89.7,42.64-7.55,1-15.55.39-23,2.13-7.63,1.8-12.5,6.09-18.18,11.06-9.66,8.46-20,15.3-32.59,18.58a75.5,75.5,0,0,1-37.74.07c-6.28-1.63-11.38-5-17.36-7.17-9.05-3.31-14.34.22-23.3,3a97.22,97.22,0,0,1-41.55,3.41,94.21,94.21,0,0,1-19.83-4.65c-6.21-2.22-12.38-7-18.54-8.79-10.11-2.87-16.08,5.71-24.55,9.7a68.78,68.78,0,0,1-16.66,5.46,70.73,70.73,0,0,1-38.59-3.39c-6.86-2.68-13.09-7.19-20.15-9.26-7.56-2.21-14.36-.21-21.81,1.17-12.49,2.31-24,2.07-35.85-2.86-23.21-9.67-40.4-31.46-54.36-51.59-7.75-11.19-13.34-23.53-12.09-37.4,1.08-12.06,7.33-22.51,12.34-33.25,6.89-14.79,4.71-30.65,9.26-46a79.64,79.64,0,0,1,17-30.38,77.72,77.72,0,0,1,17.33-14.32c6.19-3.8,13.37-6.28,17.85-12.37,6.64-9,9-20.4,16.1-29.48A87.07,87.07,0,0,1,613.51,1144c7.62-.49,17.67,1.88,25-.66,8.31-2.88,9.72-9.61,13.1-16.76a81,81,0,0,1,21.78-27.9C693.06,1082.49,716.83,1076.79,741.77,1080.11Z" transform="translate(-40.82 -225.41)"/><path class="cls-2" d="M651.62,1126.56c-3.38,7.15-4.79,13.88-13.1,16.76-7.34,2.54-17.39.17-25,.66a87.07,87.07,0,0,0-62.68,33.27c-7.07,9.08-9.46,20.46-16.1,29.48-4.48,6.09-11.66,8.57-17.85,12.37a77.72,77.72,0,0,0-17.33,14.32,79.64,79.64,0,0,0-17,30.38c-4.55,15.34-2.37,31.2-9.26,46-5,10.74-11.26,21.19-12.34,33.25-1.25,13.87,4.34,26.21,12.09,37.4,14,20.13,31.15,41.92,54.36,51.59,11.85,4.93,23.36,5.17,35.85,2.86,7.45-1.38,14.25-3.38,21.81-1.17,7.06,2.07,13.29,6.58,20.15,9.26a70.73,70.73,0,0,0,38.59,3.39,68.78,68.78,0,0,0,16.66-5.46c8.47-4,14.44-12.57,24.55-9.7,6.16,1.75,12.33,6.57,18.54,8.79a94.21,94.21,0,0,0,19.83,4.65,97.22,97.22,0,0,0,41.55-3.41c9-2.82,14.25-6.35,23.3-3,6,2.19,11.08,5.54,17.36,7.17a75.5,75.5,0,0,0,37.74-.07c12.57-3.28,22.93-10.12,32.59-18.58,5.68-5,10.55-9.26,18.18-11.06,7.42-1.74,15.42-1.09,23-2.13,32.05-4.43,62-27.19,89.7-42.64,13.09-7.31,26.65-14.19,39-22.77s20.52-18.57,29.78-29.9c9.54-11.67,30-9.84,43.34-16.64a84.25,84.25,0,0,0,30.67-27.3,79.74,79.74,0,0,0,9.94-20.3c1.7-5.18,1.22-13.28,5.46-16.73,3.85-3.12,17.35-3.11,22.73-5.18a74,74,0,0,0,17.48-9.55,75,75,0,0,0,25.34-31.76c2.25-5.5,2.34-12.29,4.85-17.48,3.64-7.49,14.08-6.66,20.82-10.49,18.94-10.74,26.86-34.1,20.62-54.1,20.92-20.58,19-59.11-6.11-75.75a7.74,7.74,0,0,0-1.29-6.21c-13-19.39-33.8-41-57.93-32.76-25.22-34.55-76.84-44.81-112.75-20.55-20.68-4.76-42.23-8.61-63.31-4.59a67.3,67.3,0,0,0-28.64,12.76c-5.86,4.5-9.52,8.16-17.38,7.93-7.18-.2-14.51-1.75-21.66-2.45-42-4.11-93.69,3.78-112.28,45.69a74.68,74.68,0,0,0-54.18,2.72,70.91,70.91,0,0,0-26.76,20.8c-3.53,4.53-6.12,9.47-9.21,14.28-6.25,9.73-11.63,11.13-23.47,9.55-24.94-3.32-48.71,2.38-68.37,18.55A81,81,0,0,0,651.62,1126.56Zm36.25-14.39a65.56,65.56,0,0,1,39.32-13.73c13.06,0,25.84,5.59,38.34-.65,10.51-5.25,15.36-15.7,21.45-25.11,14.45-22.35,45-30.72,68.88-19,5.7,2.79,12.73.59,14.56-5.92,10.56-37.63,54.14-43.87,87.37-41.59,15,1,33.84,7.56,48,.78,6.56-3.13,11.2-8.95,17.42-12.62,7.46-4.39,15.94-6.39,24.52-7,15.63-1.13,30.84,2.34,46,5.49,13.51,2.81,23-8.88,36.27-11.65,26.57-5.53,55.91,6.16,69.82,29.65,2.58,4.36,8.8,6.31,13.23,3.47,16-10.24,30,6.47,38.85,18.82-3.81,4.78-4.23,12,2.8,15.39,17.78,8.61,20.76,36.93,3.15,47.58a11.26,11.26,0,0,0-4,15.13,24.11,24.11,0,0,1-3.74,28.26c-8,8.38-21,5.85-29.55,13.73-8.09,7.44-8.26,18.76-12.53,28.18a53.18,53.18,0,0,1-23.32,24.81c-10.26,5.44-21.84,3.83-32.1,8.44-12.6,5.66-14.09,16.77-17.3,28.76a55.67,55.67,0,0,1-18,28c-11.08,9.37-22.51,10.65-36,13.68-10.67,2.38-18.57,7.5-25.47,15.92-8.95,11-16.72,20.42-28.85,28.19-25.72,16.49-53.32,30.6-80,45.46-12.49,7-24.35,12.74-38.77,14.09-13.2,1.24-25.84,1.73-37.21,9.39-9.24,6.23-16.09,15.49-26.25,20.39a49.39,49.39,0,0,1-36.53,2.37c-11.38-3.83-19.66-10.56-32.4-8.42-13.88,2.33-25,9.42-39.58,9.52s-26.61-4.49-39.49-10.87c-10.83-5.38-21.34-7.14-32.06-.41-12.26,7.7-20.75,16.12-36.33,16.17-13.62,0-23.73-7.84-36.09-11.94-11-3.63-21.16-1.81-32.19.5-15.34,3.2-27.36,0-39.64-9.76-9.14-7.27-16.84-16.56-24-25.75-9.23-11.92-19.39-24.69-15.26-40.61,2.69-10.34,9.27-19.4,13-29.4,4.9-13.29,3-27.48,7-40.88a58.66,58.66,0,0,1,22.07-30.89c9.45-6.64,20.13-10.19,27.07-19.94,6.72-9.43,9.15-21,16.63-30.1a68.14,68.14,0,0,1,32.1-21.68c23-7.17,52.07,4.9,65.63-21.32C671.31,1132.36,676.12,1121.17,687.87,1112.17Z" transform="translate(-40.82 -225.41)"/><path class="cls-2" d="M628.59,1061.92c-39,26.6-74.5,58.07-108.71,90.49-33.67,31.91-65.63,65.68-93.21,103.07-26.91,36.5-49.22,76.37-78.17,111.38-25.82,31.23-60.75,52.33-87,82.83-16.77,19.51-44.23,73.39-2,82.61,1.27.28,2.68.23,4,.43,26.51,16.89,58.9,23.14,89.95,26,46.31,4.28,93.34,4,139.81,5.72,95.76,3.64,192.25,9.57,288.09,8.12,44.93-.67,90.07-4.13,133.94-14.27s85.34-28,125.11-48.87c36.75-19.27,72.25-41,103.72-68.18,32.47-28,59.32-61.2,83.18-96.71,27.1-40.35,56-81.73,75.71-126.32,16.21-36.76,28.92-84.78,20.82-126.11,4.19-29.36,2-59.05-10.33-87.64a124.15,124.15,0,0,0-18.47-30c.12-3.16-1.28-6.26-5.28-8.12-1.18-.54-2.4-1-3.58-1.51-2.12-2.06-4.17-4.18-6.45-6.09a10.33,10.33,0,0,0-11.36-1.44,528.38,528.38,0,0,0-244-37.17c-93.79,8-184.85,43.17-271.58,78C709.54,1015.58,667.22,1035.56,628.59,1061.92Zm659.54,139.4c-15.3,39.23-38.93,76.12-61.42,111.56-22.26,35.07-46,69.57-76.37,98.21-29.43,27.77-64.1,50.25-99.38,69.85-37.07,20.59-75.72,39.15-116.54,51-42.26,12.3-86.17,17.38-130,19.15-89,3.59-178.52-1.31-267.49-3.16-50.83-1.06-101.68-1.71-152.52-2.79-33.89-.73-67.16-1-98.41-11.63,12.88-.82,25.94-3,37.64-4.75,24.51-3.63,48.74-8.92,73.22-12.73,52.19-8.12,105-5.35,157.5-2.16,96.15,5.83,191.33,4.89,286-14.92,86.89-18.18,171.38-49.38,246.52-97.06,67.89-43.1,127.9-98.8,173.42-165.26a509.44,509.44,0,0,0,35.64-60A240.92,240.92,0,0,1,1288.13,1201.32ZM960.85,951.71c85-18.39,174.58-14.18,257.73,11a592,592,0,0,1,56.85,20.3c24.91,26.65,31.72,60.06,28.54,94.33,0,.22-.22.31-.23.55,0,.54,0,1.08,0,1.63-4.24,40.25-22,81.54-41,114.41-38,66-91.25,122.82-152.61,167.71C971.21,1463.27,797.89,1499,628.24,1495.73c-47.14-.9-94.13-5.49-141.28-6.2-46.27-.69-90.71,5.17-136.07,13.59-22.53,4.18-45.16,8.1-68.09,9-10.27.42-24.94,3.14-24.82-10.75.09-9.36,5.61-19,10.56-26.62,20-30.72,54.61-49.62,79.57-75.9,27.69-29.17,49.36-63.32,71.64-96.62,24.32-36.36,51.05-70.22,81.54-101.65,61.2-63.09,128.59-121.91,208.28-160.25,39.65-19.08,81.09-34,122.52-48.72C874.43,976.61,916.86,961.22,960.85,951.71Z" transform="translate(-40.82 -225.41)"/><path class="cls-2" d="M624.84,1220.59c-11.47,8.61-20.17,20.25-27.23,32.64a45.89,45.89,0,0,0-5.85,16.3,46.29,46.29,0,0,0-36.4,18.11c-13.76,17.67-15.53,44.82-3.57,63.74,2.8,4.41,10,2.75,10-2.72,0-15.66-3-33.4,6-47.3,6.34-9.78,20.6-17.36,32-12.07,10.87,5,19.09-9,9.36-16,1.43,1,.37,0,.67-2.15a18.68,18.68,0,0,1,1.8-5.1,101,101,0,0,1,7.88-13.13c5.22-7.68,11.64-14.9,19.58-19.84a38.86,38.86,0,0,1,23.94-6.08c8.34.75,15.63,7.93,24.1,5.73a5.23,5.23,0,0,0,3.69-3.69c3.08-14.66-17-19.71-27.79-20.47C649.36,1207.57,635.75,1212.39,624.84,1220.59Z" transform="translate(-40.82 -225.41)"/><path class="cls-2" d="M799.55,1207.48c5.67-7.08,8.37-16.3,13.09-24.08,4.06-6.71,8.7-13.09,14.7-18.22,13.43-11.47,30.9-8.73,46.54-4.07,5,1.48,10.09,4,15.13,1.45,4.16-2.11,5.94-5.88,4.26-10.35-.06-.15-.17-.23-.22-.37,2.9-3.44,5.62-7.09,8.75-10.41,5-5.27,10.94-9.58,18.21-10.84,6.76-1.18,11.79,1.65,17.24,5.39,3.37,2.31,6.51,4.73,10.48,5.91a12.29,12.29,0,0,0,6.58.44,7.6,7.6,0,0,0,3.59-1.91L959,1139c-.65.55-.53.54.35,0a2.76,2.76,0,0,0,.55-4.29c-.11-.09-.2-.2-.3-.3-.68-4.21-4.83-7.19-8.16-9.49s-6.55-4.92-10.05-7a35.21,35.21,0,0,0-27.63-3.22c-9.16,2.58-17.21,8.26-23.47,15.33a62.35,62.35,0,0,0-9.57,13.89c-4.17-1.29-8.36-2.51-12.64-3.41-18.6-3.9-37.09-2.18-52.11,10.3-7.12,5.92-12.79,13.61-17.59,21.48-5.22,8.58-11.92,19.59-11.87,29.89C786.57,1208.15,795.24,1212.86,799.55,1207.48Z" transform="translate(-40.82 -225.41)"/><path class="cls-2" d="M1068.12,1107.93c1.62-1,3.2-1.15,4.56-2.77,1.08-1.29,1.85-2.83,2.91-4.15a91.68,91.68,0,0,1,7.43-8.33,35.1,35.1,0,0,1,17.57-9.91,35.58,35.58,0,0,1,20.22,1.89c3.29,1.33,6.91,3.9,9.36,5.49-.56-.36,1,1.06.17,0,.87,1,1.54,2.17,2.48,3.13.2.21,1.58,1.4,2,1.72.16.14.31.29.46.44a2.77,2.77,0,0,0,2.55,2.73c6.85.74,10.69-6.5,9.6-12.44s-6-9.88-10.62-13.11c-9.29-6.43-21.88-9.14-33-8a51.64,51.64,0,0,0-30.48,13.89,36.32,36.32,0,0,0-11.15,20.23c-.68,3.59.46,5.19,2,8.08A3,3,0,0,0,1068.12,1107.93Z" transform="translate(-40.82 -225.41)"/><path class="cls-2" d="M731.6,1356.14c2.94-1.52,3.43-4,4.68-6.9a104.78,104.78,0,0,1,5.23-10.3,46.08,46.08,0,0,1,15.16-16.41c13.67-8.71,31-8.71,45-1,5.79,3.18,15.39-.68,14.51-8.33-1-8.88,3.19-18.35,12.33-21.06a17.85,17.85,0,0,1,11.9.85,49.68,49.68,0,0,1,6.28,3.63c3.23,2,5.68,2.1,9.1,3.23,3.64,1.21,6.59-1.95,6.9-5.26.53-5.67-.11-9.18-4.07-13.43-3.18-3.42-7.3-5.56-11.6-7.24a37.56,37.56,0,0,0-25.5-.68c-12.58,4.38-20.5,15-23.32,27.1-16.54-4.08-34.49-2-48.76,8a60.92,60.92,0,0,0-19.34,21.75c-3.09,6-8.59,20.06-2.45,25.53A3.36,3.36,0,0,0,731.6,1356.14Z" transform="translate(-40.82 -225.41)"/><path class="cls-2" d="M1011.15,1214.84c1.1,1,2.7,1.15,3.76,2a.8.8,0,0,0,.93.12c.73-.55,2.76-.6,3.62-1a9,9,0,0,0,2.21-1.48c1.59-1.59,2.28-3.69,3.31-5.63a108.83,108.83,0,0,1,5.37-9.62,29.28,29.28,0,0,1,13.93-10.79,40.32,40.32,0,0,1,5.38-1.45,19.26,19.26,0,0,1,4-.4,27,27,0,0,1,10.06,1.12c3.57,1,6.51,3,10.67,3.89,5.92,1.31,13.1,0,16-5.94,3.18-6.39-.82-12.52-7.61-13.27a17,17,0,0,0-3.36.22c0-.07-.28-.19-.91-.36-1.62-.44-3.61-1.47-5.88-2.36a49.61,49.61,0,0,0-40.52,2.76,48.69,48.69,0,0,0-18.75,17.92,32,32,0,0,0-4.61,12c-.39,2.78-.89,5.7-.11,8.46A8.45,8.45,0,0,0,1011.15,1214.84Z" transform="translate(-40.82 -225.41)"/><path class="cls-2" d="M1211.52,1120.11l-.07,0C1210.68,1119.68,1209.69,1119.55,1211.52,1120.11Z" transform="translate(-40.82 -225.41)"/><path class="cls-2" d="M1178.93,1124.47c1.44,1.61,3.89,1.85,6,1.3l-1.49.4a10,10,0,0,0,2.63-.63c.13-.07.32,0,.45-.09l0,0c.45-.16,1-.08,1.36-.33l1.61-1.24c-.75.54-.88.66-.39.34a12.44,12.44,0,0,0,2.28-1.2c1.48-.89,2.85-1.85,4.39-2.65l.74-.25c.89-.31,1.79-.62,2.7-.87.76-.21,1.53-.36,2.29-.51.36,0,.72-.07.92-.08a29.74,29.74,0,0,1,3.79.14c.39,0,1.5.16,2,.3.84.21,1.67.45,2.49.74.41.14.81.34,1.22.45l-.51-.15a22.09,22.09,0,0,1,2.18,1.22,38.56,38.56,0,0,0,4.89,2.76c3.78,1.66,8.46,1.85,11.52-1.49s3.31-7.49,1.49-11.52a19.12,19.12,0,0,0-7-7.41,39.09,39.09,0,0,0-7.34-3.4,36.27,36.27,0,0,0-14.27-2c-10.82.66-24.23,6-26.76,17.84-.57,2.69-.12,5.8,2,7.74A3.7,3.7,0,0,1,1178.93,1124.47Z" transform="translate(-40.82 -225.41)"/><path class="cls-6" d="M1288.13,1201.32a240.92,240.92,0,0,0,7.78-24.67,509.44,509.44,0,0,1-35.64,60c-45.52,66.46-105.53,122.16-173.42,165.26-14.1,8.95-28.63,17.13-43.35,24.95a225.25,225.25,0,0,1-47.19,81.79c18.62-8.44,36.83-17.82,54.66-27.72,35.27-19.6,69.94-42.08,99.37-69.85,30.34-28.64,54.11-63.14,76.37-98.21C1249.2,1277.44,1272.83,1240.55,1288.13,1201.32Z" transform="translate(-40.82 -225.41)"/><path class="cls-10" d="M729.66,1175.38Z" transform="translate(-40.82 -225.41)"/><path class="cls-10" d="M758.24,1162.85a8.68,8.68,0,0,0,1.63-5.49c-.22-2.55-4.07-3.47-4.74-.64l-.15.49a8.56,8.56,0,0,0-2.18-2.19c-2.82-1.74-6.3-1.53-9.5-1.89a28.61,28.61,0,0,0-16.92,2.93,30.27,30.27,0,0,0-12.5,12.44,22.21,22.21,0,0,0-2.68,9.75c-.17,3.53,1,7.89,4.12,9.82a5,5,0,0,0,7.65-.58c1.84-1.64,2.72-4.06,3.55-6.56.09-.19.18-.38.28-.57.24-.47.48-.94.7-1.42a24.88,24.88,0,0,1,1.55-2.82,5.87,5.87,0,0,1,.61-.74c-.12.11-.32.33-.68.7.37-.38.69-.83,1-1.23.73-.79,1.67-1.42,2.36-2.22l-.23.25a1.86,1.86,0,0,1,.22-.19c.45-.3.9-.58,1.37-.84a11,11,0,0,0,1.25-.62l.33-.12c.51-.16,1-.31,1.54-.43l.25,0,1.1-.11c.63,0,1.26,0,1.89.07,1.85.13,3.69.37,5.54.5a13.58,13.58,0,0,0,4.71-.26,10.46,10.46,0,0,0,4.16-2.42,5.41,5.41,0,0,0,1.43-1.94l.09-.22c0-.06,0,0,0,0l.22-.26A7.54,7.54,0,0,0,758.24,1162.85Z" transform="translate(-40.82 -225.41)"/><path class="cls-10" d="M732.16,1172.88c-.5.42-.81.91,0,0Z" transform="translate(-40.82 -225.41)"/><path class="cls-10" d="M1044.66,1049.49a30,30,0,0,0-6.82-7.52,34.22,34.22,0,0,0-19.79-7.71,29.88,29.88,0,0,0-18.77,5.89,28,28,0,0,0-7.54,8.25,23.92,23.92,0,0,0-2.12,4.59,42.67,42.67,0,0,0-17.47.1,41.06,41.06,0,0,0-21.26,12.77c-5.57,6.31-11.36,15.81-9,24.54,1.44,5.37,8.15,5.5,11,1.44,1.84-2.59,2.79-5.67,4.39-8.57a29.27,29.27,0,0,1,4.5-6.5,26.42,26.42,0,0,1,14.58-8.28,27.82,27.82,0,0,1,14.85,1.7,32.62,32.62,0,0,1,4.36,2.34,20.37,20.37,0,0,1,2.67,1.92c3.08,2.67,3.94,4.34,6.47,7.41l.11-.14a8.18,8.18,0,0,0,9.79,1.42c4-2.36,4.88-7.21,2.92-11.17-3-6.14-9-10.92-15.16-14.28l.13-.12c.4-.39.79-.78,1.21-1.15.21-.19,1.42-1.15.28-.3.88-.66,1.82-1.26,2.73-1.87a26.24,26.24,0,0,1,3.17-1.85c.26-.13.41-.18.55-.24.51-.18,1-.36,1.54-.51a22.23,22.23,0,0,1,2.55-.54c.32,0,1-.12,1.15-.13.55,0,1.11,0,1.67,0,.37,0,.75,0,1.12.08a5.32,5.32,0,0,1,.61.1,28.41,28.41,0,0,1,3.52,1l.08,0s0,0,0,0c.48.29,1,.5,1.48.78s1.15.68,1.71,1.06c.16.11.84.65.77.56l.66.61c.49.45,1,.92,1.42,1.42.3.32.57.68.88,1-1.33-1.4,0,.08.25.42a20,20,0,0,0,4.2,4.6l.81.61c.31.26.62.52.92.79,3.18,2.88,9.23,2.06,10.21-2.7C1046.94,1057.2,1047,1053.31,1044.66,1049.49Z" transform="translate(-40.82 -225.41)"/><path class="cls-10" d="M975.73,1231.27c.21,1.37.26,1.6.16.68a11.81,11.81,0,0,0-2.35-6.68,29.75,29.75,0,0,0-8.2-7.73,30.38,30.38,0,0,0-20-4.39,35.72,35.72,0,0,0-19.56,9.51,31.83,31.83,0,0,0-6.6,8.36c-1.62,3-3.65,7.66-2.06,11.08a6.34,6.34,0,0,0,1.4,2.59,4.14,4.14,0,0,0,2.67,1.26c3.74.55,6.63-1.55,9.28-4,1.91-1.79,3.88-3.52,5.85-5.25.39-.35.8-.68,1.21-1l.62-.43a34.71,34.71,0,0,1,3.3-2c.52-.27,1-.52,1.56-.77l.29-.14c.06,0,0,0,.1,0,1.24-.33,2.44-.74,3.69-1h0c.43,0,.86-.07,1.29-.07.61,0,1.21,0,1.82.06h0c1,.25,2,.46,3,.8l.45.16c.45.21,1.18.64,1.25.68.44.26.86.54,1.29.81l0,0c.31.26,1,1,1.08,1l.41.43.17.19.17.25a17.1,17.1,0,0,0,2.21,2.76c.48.4.48.32.38.15a10.6,10.6,0,0,0,3.19,3c3.41,1.93,9.23,1.17,10.95-2.87a10.73,10.73,0,0,0,1.27-4.87C976,1233,975.85,1232.11,975.73,1231.27Z" transform="translate(-40.82 -225.41)"/><path class="cls-10" d="M672.09,1340.4a15.08,15.08,0,0,0-3.06-1.46,25.79,25.79,0,0,0-2.51-1.11c-.2-.07-.15,0-.23,0s-.23-.22-.38-.28a8.91,8.91,0,0,0-2.21-.92,10.94,10.94,0,0,0-3.78-.27,23.53,23.53,0,0,0-8.16,2.18,32.18,32.18,0,0,0-5.3,3c-6.48,4.57-13.12,12.07-13.89,20.43a31.69,31.69,0,0,0-14,7.89,26.07,26.07,0,0,0-6.17,10,19.58,19.58,0,0,0-.55,10.73c.59,3.11,5.46,3.71,6.86.9a37.57,37.57,0,0,1,7.49-10.67c.87-.85,1.73-1.71,2.65-2.51l.52-.42c-.37.29-.37.3,0,0s.91-.62,1.38-.91a14.15,14.15,0,0,1,5.75-2.31c.16,0,1.84-.3,1.08-.21s.93-.05,1.09-.06q1,0,2,0l1.07.06c.31.06,1,.15,1.08.18.65.13,1.3.28,1.94.47s1,.32,1.58.5l.65.26a39.52,39.52,0,0,1,6.09,3.72c.44.32.86.66,1.33.94s2.5,1.35,1.45.68a10,10,0,0,0,3.29,1.37c1.39.64,2.8,1.16,4.32.28a4.24,4.24,0,0,0,1.8-4c0-.14.07-.52.16-1.3-.08-.67-.17-1.34-.28-2,0,.11-.72-1.65-1-2.21a14.33,14.33,0,0,0-3.88-5.28,30.88,30.88,0,0,0-15-6.7c.31-.53.61-1.07.93-1.59.1-.15.7-1.13,1.05-1.57l.44-.54c.21-.24.41-.48.62-.71a31.84,31.84,0,0,1,3.56-3.41l0,0a4.62,4.62,0,0,1,.93-.66c.65-.44,1.31-.86,2-1.26s1.37-.76,2.07-1.1a4.82,4.82,0,0,0,1.07-.5c-.28.4-1.11.44,0,0s2.21-.83,3.3-1.33c.28-.13.59-.3.89-.41l.15,0a15.37,15.37,0,0,0,3-1.4c.57-.38,1.87-1.45.85-.66.19-.15.29-.34.47-.49a6.92,6.92,0,0,0,1.3-.59,3.38,3.38,0,0,1,.75-.28c1-.24,2-.35,3-.57C673.46,1343.83,673.5,1341.33,672.09,1340.4Z" transform="translate(-40.82 -225.41)"/><path class="cls-10" d="M664.14,1373.31l0,0C664,1373.05,664.06,1373.11,664.14,1373.31Z" transform="translate(-40.82 -225.41)"/><path class="cls-10" d="M878.1,1360.72s0,0,0-.23a8.62,8.62,0,0,0-.43-2.29,17.33,17.33,0,0,0-.11-2,2.3,2.3,0,0,0-2.47-1.76,32,32,0,0,0-11.93-9.38A32.64,32.64,0,0,0,843,1342a24.93,24.93,0,0,0-15.7,10.3c-3.78,5.26-4.93,13.2-.27,18.21,2.38,2.55,6.1,1.5,7.9-1-.66.92.41-.53.49-.63a7.54,7.54,0,0,0,.93-1.63l-.43.5c.37-.47.73-1,1.1-1.43s.42-.88.66-1.3.42-.67.63-1l.09-.1c.62-.66,1.2-1.36,1.87-2,.27-.26.37-.34.44-.4l.83-.56a25.73,25.73,0,0,1,2.39-1.49c.15-.08.7-.31,1-.43l.2-.06c.5-.16,1-.3,1.51-.41.34-.08,1.51-.07.92-.13h.26c.58,0,1.16,0,1.74,0,.15,0,.07,0,.16,0a12.44,12.44,0,0,1,1.35.26,31.09,31.09,0,0,1,3,.89l.17,0s0,0,0,0c.51.28,1,.51,1.56.79a31.27,31.27,0,0,1,2.71,1.67c.32.21.61.42.72.5s.44.35.65.54c2,1.75,4.27,3.88,6.75,5,3.69,1.65,8.22,1.16,10.39-2.73a8.14,8.14,0,0,0,1.21-4C878.14,1361,878.13,1361,878.1,1360.72Z" transform="translate(-40.82 -225.41)"/><path class="cls-10" d="M1171,1152.66l2.89,2.89c-4-6.1-12-6-18.35-4.78a30,30,0,0,0-11.76,5.16c-4.49,3.26-8.24,7.19-10.26,12.45a17.34,17.34,0,0,0-1.34,7c.17,2.42.53,4.52,2.24,6.4l.25.26c.13.2.25.42.36.59,1.92,2.93,6.51,3.32,8.35,0a7,7,0,0,0,.4-.7c0-.05,0,0,0,0a8.92,8.92,0,0,0,1.85-1.83c.6-1,1.1-2.09,1.68-3.13.3-.53.63-1,1-1.54l.33-.45q.59-.8-.75,1c.11-.58,1.21-1.52,1.55-2,.22-.29.43-.6.64-.9l0-.06.67-.65c.44-.45.89-.88,1.35-1.3l.27-.22a34.75,34.75,0,0,1,3-1.84l.68-.32,1.08-.4a22.81,22.81,0,0,1,2.45-.55,21,21,0,0,1,4.19,0l-2.31-.31a32.54,32.54,0,0,0,4.3.5,27.61,27.61,0,0,0,3.09-.31l-1.5.17a9.06,9.06,0,0,0,2.43-.27,8,8,0,0,0,5.75-7.42C1175.66,1156.71,1173.5,1154.41,1171,1152.66Z" transform="translate(-40.82 -225.41)"/><path class="cls-10" d="M1205.93,1041.85c0-2.83-1.67-5-3.55-6.91a32,32,0,0,0-6.77-5.19,30,30,0,0,0-32.37,1.4,25.62,25.62,0,0,0-6.86,6.87,22.76,22.76,0,0,0-1.75,3.17l-.66,1.56c-.28,1.67-.32,2.09-.18,1.5-.08.38-.24,1.32-.26,1.46-.66,4,2.39,8,6.76,6.76a5.27,5.27,0,0,0,2.42-1.45v0c.29-.35.58-.69.89-1l1.24-1c.72-.69,1.32-1.51,2.05-2.2s1.39-1.19,2.09-1.77l.87-.75a5.87,5.87,0,0,1,.52-.4,25.2,25.2,0,0,1,2.34-1.43c.43-.23.88-.44,1.33-.64l.25-.08a29.58,29.58,0,0,1,2.93-.82c.14,0,.84-.11,1.06-.14l.56,0c.94,0,1.87.06,2.81.08h0l.12,0c.51.12,1,.21,1.52.35s1,.28,1.49.44l.84.32.76.37,1.1.59c.45.26.89.53,1.33.82l.47.32a22.16,22.16,0,0,1,2,1.84,11.23,11.23,0,0,0,3.76,3,8.85,8.85,0,0,0,3.4.75l2-.27-.68,0a4.78,4.78,0,0,0,5.13-3.26c.24-.75.29-1,0-.12A12.28,12.28,0,0,0,1205.93,1041.85Z" transform="translate(-40.82 -225.41)"/><path class="cls-11" d="M562.58,1262a2.69,2.69,0,0,0-2.58-2,7,7,0,0,1-4-.23l-.29,0c-.32,0-.64,0-1,.06l3,.82a8.28,8.28,0,0,0-4.56-1c-.58.06-1.15.09-1.73.11-1.25,0-2.47.09-3.72.24-3.41.41-6.54.79-9.6,2.46a18.49,18.49,0,0,0-6.78,6.54c-1.64,2.72-2.43,6.66-1.17,9.7a7.25,7.25,0,0,0,2.24,3.24,6,6,0,0,0,2.64,1.12c.44.2.84.45,1.28.6a4.81,4.81,0,0,0,5.09-1.73,4.74,4.74,0,0,0,.75-3.7,7.72,7.72,0,0,0,0-1.18s0-.09.07-.13l-.06.47a4.74,4.74,0,0,1,.16-.65l0-.08,0,.16a1.34,1.34,0,0,1,0-.2c.14-.27.29-.54.46-.81a9.9,9.9,0,0,1,.72-.73l.08-.07c.38-.24.77-.44,1.16-.65a13.84,13.84,0,0,1,1.9-.46,48,48,0,0,0,5.24-.62c.83-.17,1.66-.36,2.48-.58a15.42,15.42,0,0,0,1.84-.64,8.2,8.2,0,0,0,3.59-3.14l-2.16,2.17a15.09,15.09,0,0,0,2.85-2,5.7,5.7,0,0,0,1.61-4.11A5.31,5.31,0,0,0,562.58,1262Z" transform="translate(-40.82 -225.41)"/><path class="cls-11" d="M758.41,1263.66c-7.06-5.8-18.6-6.62-27.38-5.62a52.16,52.16,0,0,0-25.45,9.6c-7.11,5.31-12.94,12.17-16.09,20.55-1.38,3.67-2.8,8.24-2.47,12.18.2,2.35,1.57,9.13,5.44,7.64,2.68-1,4.58-3.84,5.94-6.28a85.38,85.38,0,0,1,4.9-8.23,48.75,48.75,0,0,1,12-12.17,36.26,36.26,0,0,1,16.29-5.79,52.28,52.28,0,0,1,9.7.2c3.16.43,7.51,2.22,11.19,2.36C759.34,1278.36,764.13,1268.37,758.41,1263.66Z" transform="translate(-40.82 -225.41)"/><path class="cls-11" d="M872.34,1104.38a16.87,16.87,0,0,0-3.89-4.19l1.51,1.51a5.49,5.49,0,0,0-2.05-2.2c-2.51-2.74-7.5-3.59-10.78-3.5a33.5,33.5,0,0,0-10.89,2.08A37.11,37.11,0,0,0,836,1103.9a18.5,18.5,0,0,0-6.15,9.75,4.3,4.3,0,0,0,1.13,4.27,4.71,4.71,0,0,0,1.51,1l.42.16a4.42,4.42,0,0,0,4.27-1.13c.29-.25.58-.5.88-.74.61-.5-.54.39.08,0,.8-.57,1.57-1.18,2.34-1.81-.92.75.81-.54,1.09-.75.53-.39,1-.81,1.56-1.23.85-.72-.51.28.09-.08,1.21-.74,2.33-1.58,3.6-2.24l1.32-.63c.59-.24,1.19-.47,1.8-.66a32.83,32.83,0,0,1,4.14-1l.93-.09c.71-.05,1.41-.07,2.12-.07,2.76,0,6.42.5,9.13-.67a6.67,6.67,0,0,0,2.19-.44l-2.13.57c1.28.1,2.55.07,3.82.18A2.56,2.56,0,0,0,872.34,1104.38Z" transform="translate(-40.82 -225.41)"/><path class="cls-11" d="M997.81,1266a18.74,18.74,0,0,0-2.88.54c-.45.12-.88.25-1.32.39a6.28,6.28,0,0,0-.64.18,6.76,6.76,0,0,0-2.31.21c-.37.09-.73.21-1.09.31s-1.55.15-.18.19c-2.61-.18-5.24.94-7.56,2.29a25,25,0,0,0-3.69,3c-.89.78-1.8,1.56-2.62,2.41a37.54,37.54,0,0,0-4.82,6.3c-1.16,1.87-2.73,4.56-2.88,7a7.28,7.28,0,0,0-.19,3.76c.17.42.23.55.28.67a2.38,2.38,0,0,0,.21.78c.16.29.51.84.89,1,.21.06,1.35.41,1.76.21l.37.05a7.42,7.42,0,0,0,1.15-.17,7.33,7.33,0,0,0,1.84-.78,4.34,4.34,0,0,0,1.82-.57c.37-.24.73-.55,1.08-.81.86-.62,1.73-1.2,2.6-1.81,1.23-.88,2.39-1.88,3.58-2.83l0,0,.21-.15c.81-.61,1.67-1.2,2.44-1.86s1.64-1.49,2.48-2.21,1.8-1.35,2.55-2.14,1.43-1.71,2.12-2.55a9.51,9.51,0,0,0,1.86-3.47l.11-.14.46-.58a11,11,0,0,0,1-1.3,3.58,3.58,0,0,0,.27-.82c.95-1,1.93-1.93,2.78-3C1000.57,1268.6,1000.08,1265.68,997.81,1266Z" transform="translate(-40.82 -225.41)"/><path class="cls-11" d="M1112.78,1033.25a8.15,8.15,0,0,0-1.86-3.35,14.4,14.4,0,0,0-1.25-1.22,16.63,16.63,0,0,0-5.87-3.23A23.56,23.56,0,0,0,1093,1025a19.87,19.87,0,0,0-3.71.9,17.41,17.41,0,0,0-5.51,3.24,15.88,15.88,0,0,0-3.28,3.61c-1.07,1.67-2.26,4-1.51,6v-2.26a14.16,14.16,0,0,0-.37,1.69c-.57,3.58,3.19,6,6.06,3.53l.29-.23.08-.06c.85-.37,1.66-.85,2.49-1.24l1.13-.52.07,0,.69-.23c1.06-.32,2.15-.47,3.22-.75.11,0,.5-.15.89-.25h.2l.92-.07c.56,0,1.12,0,1.69,0l.48,0a29,29,0,0,1,2.89.72,15.8,15.8,0,0,0,1.56.52l.83.35.25.08s.27,0,.59.18a11.33,11.33,0,0,0,1.74.43,16.1,16.1,0,0,0,3,1.6c3.1,1.07,6.54-1.76,6.45-4.92A9,9,0,0,0,1112.78,1033.25Z" transform="translate(-40.82 -225.41)"/><path class="cls-11" d="M1102.81,1040.18l-.44-.14a4.92,4.92,0,0,0,1.12.38C1103.26,1040.36,1103,1040.26,1102.81,1040.18Z" transform="translate(-40.82 -225.41)"/><path class="cls-12" d="M282.8,1512.14c19.41-.78,38.61-3.74,57.71-7.16-10.37-8.49-17-21.7-14.13-34.94,2.73-12.69,11.85-22.87,20.47-32.59,47.14-53.15,89.63-111.4,134.31-167.09a66.47,66.47,0,0,1,1.36-6.56,79.64,79.64,0,0,1,17-30.38,77.94,77.94,0,0,1,17.33-14.32c6.19-3.8,13.37-6.28,17.85-12.37,6.64-9,9-20.4,16.1-29.48a87.35,87.35,0,0,1,43-29.57,548.9,548.9,0,0,1,67.24-51.81c58-37.63,123.41-62.29,189.21-83.55,10.69-3.45,21.47-6.65,32.23-9.93,15.85-9.94,35.33-14.72,55.06-15.88,67.28-18.27,135.65-32.39,204.65-40.52-60.2-8.71-121.9-7.15-181.38,5.72-44,9.51-86.42,24.9-128.76,39.92-41.43,14.7-82.87,29.64-122.52,48.72-79.69,38.34-147.08,97.16-208.28,160.25-30.49,31.43-57.21,65.29-81.54,101.65-22.28,33.3-43.95,67.45-71.64,96.62-25,26.28-59.59,45.18-79.57,75.9-5,7.63-10.47,17.26-10.56,26.62C257.86,1515.28,272.53,1512.56,282.8,1512.14Z" transform="translate(-40.82 -225.41)"/></svg>